<svg xmlns="http://www.w3.org/2000/svg" viewBox="0 0 128 128">
  <style type="text/css">
    .cls-0 { fill: url(#SVGID_1_); }
    .cls-1 { fill: url(#SVGID_2_); }
    .cls-2 { fill: url(#SVGID_3_); }
  </style>
  <linearGradient id="SVGID_1_" x1="99.51" x2="12.19" y1="114.4" y2="34.68" gradientUnits="userSpaceOnUse">
    <stop stop-color="#0071C6" offset="0"/>
    <stop stop-color="#00C8FD" offset=".502"/>
    <stop stop-color="#0ACAFF" offset="1"/>
  </linearGradient>
  <path class="cls-0" d="m96.2 117.4c-4.3 1.1-14.3 2.4-22.9-2-2.6 0.3-6 0.9-10.3 1.1-7 0.1-18.9-1.4-31.1-11.8-6.2-4.7-17.8-18.6-17.8-39.1 0.1-7 2.2-14.2 3.3-18-2.4-3.8-4.9-9.4-6.5-16.1-4.8 8.2-8.3 18.3-8.3 32.5 0 30.7 23.5 63.3 62.6 63.3 11.2 0 22.5-2.8 32.9-9.1l2.9-2v-0.7l-4.8 1.9z"/>
  <linearGradient id="SVGID_2_" x1="106.6" x2="31.83" y1="10.71" y2="110.8" gradientUnits="userSpaceOnUse">
    <stop stop-color="#00E8FD" offset="0"/>
    <stop stop-color="#0071C6" offset="1"/>
  </linearGradient>
  <path class="cls-1" d="m14.6 25.8c7.3-9.5 23-24.8 49.8-24.7 32.2 0 61.2 27.2 61.2 62.9 0 14.1-4.9 29.2-15.8 42.9-1.2-4-3-7.5-5.8-10.6 5.1-7.1 9.8-17.2 9.8-30.4 0-21.2-16.1-51.8-49.2-51.8-7.5 0-14.5 1.6-22.3 5.7-6.9-0.1-18.1 1-27.7 6z"/>
  <linearGradient id="SVGID_3_" x1="100.8" x2="39.37" y1="34.13" y2="113.3" gradientUnits="userSpaceOnUse">
    <stop stop-color="#00D2FC" offset="0"/>
    <stop stop-color="#0071C6" offset="1"/>
  </linearGradient>
  <path class="cls-2" d="m81 81.4c9.2-2.6 18.3-9.8 19.5-23 1.3-13.7-7.4-33.9-34.1-34h-14.6c-10 0-18.5 1.3-22.7 1.7l-16 1.8 23.7 18.8c2.9-1.9 7-4.5 10.7-4.5h23.2c6.3 0 11.1 5.3 11.1 12.3 0 5.1-3.6 11-10.6 11h-28.8l38.9 45.1 7.6 1.2c5.4 0.8 10.7 1.6 17.9 0.7l0.1-0.1-25.9-31zm-33.9 14.6c-0.2-5.2 1.6-11.1 4.8-15.6l-11.6-14.4c-4.5 4.7-11.2 14.3-11.3 27.6 0.1 4.2 1.1 8 2.8 11 7.4 6.4 16.8 11.8 29.9 11.9 3.1 0 6.2-0.5 8.7-0.8-16.8 0.5-22.9-9.4-23.3-19.7z"/>
</svg>
