<?xml version="1.0" encoding="UTF-8"?>
<svg id="logo_layer_1" data-name="Layer 1" xmlns="http://www.w3.org/2000/svg" xmlns:xlink="http://www.w3.org/1999/xlink" viewBox="0 0 142.6 27.18">
  <defs>
    <style>
      .cls-1 {
        fill: #fff;
      }

      .cls-2 {
        fill: url(#gradient_secondary);
      }

      .cls-3 {
        fill: url(#gradient_primary);
      }

      .cls-4 {
        fill: url(#gradient_tertiary);
      }
    </style>
    <linearGradient id="gradient_primary" data-name="Primary gradient" x1="17.09" y1="-442.02" x2="-1.36" y2="-425.18" gradientTransform="translate(0 -414.36) scale(1 -1)" gradientUnits="userSpaceOnUse">
      <stop offset="0" stop-color="#0071c6"/>
      <stop offset=".5" stop-color="#00c8fd"/>
      <stop offset="1" stop-color="#0acaff"/>
    </linearGradient>
    <linearGradient id="gradient_secondary" data-name="Secondary gradient" x1="21.59" y1="-416.11" x2="5.8" y2="-437.26" gradientTransform="translate(0 -414.36) scale(1 -1)" gradientUnits="userSpaceOnUse">
      <stop offset="0" stop-color="#00e8fd"/>
      <stop offset="1" stop-color="#0071c6"/>
    </linearGradient>
    <linearGradient id="gradient_tertiary" data-name="Tertiary gradient" x1="19.06" y1="-420.03" x2="6.07" y2="-436.76" gradientTransform="translate(0 -414.36) scale(1 -1)" gradientUnits="userSpaceOnUse">
      <stop offset="0" stop-color="#00d2fc"/>
      <stop offset="1" stop-color="#0071c6"/>
    </linearGradient>
  </defs>
  <g>
    <path class="cls-3" d="M19.78,24.58c-.91.23-3.02.51-4.84-.42-.55.06-1.27.19-2.18.23-1.48.02-3.99-.3-6.57-2.49-1.31-.99-3.76-3.93-3.76-8.26.02-1.48.46-3,.7-3.8-.51-.8-1.04-1.99-1.37-3.4-1.01,1.73-1.75,3.87-1.75,6.87,0,6.49,4.97,13.38,13.23,13.38,2.37,0,4.75-.59,6.95-1.92l.61-.42v-.15s-1.01.4-1.01.4Z"/>
    <path class="cls-2" d="M2.54,5.22C4.08,3.21,7.4-.02,13.06,0,19.86,0,25.99,5.75,25.99,13.29c0,2.98-1.04,6.17-3.34,9.07-.25-.85-.63-1.58-1.23-2.24,1.08-1.5,2.07-3.63,2.07-6.42,0-4.48-3.4-10.95-10.4-10.95-1.58,0-3.06.34-4.71,1.2-1.46-.02-3.82.21-5.85,1.27Z"/>
    <path class="cls-4" d="M16.57,16.97c1.94-.55,3.87-2.07,4.12-4.86.27-2.89-1.56-7.16-7.21-7.18h-3.09c-2.11,0-3.91.27-4.8.36l-3.38.38,5.01,3.97c.61-.4,1.48-.95,2.26-.95h4.9c1.33,0,2.35,1.12,2.35,2.6,0,1.08-.76,2.32-2.24,2.32h-6.09l8.22,9.53,1.61.25c1.14.17,2.26.34,3.78.15l.02-.02s-5.47-6.55-5.47-6.55ZM9.4,20.05c-.04-1.1.34-2.35,1.01-3.3l-2.45-3.04c-.95.99-2.37,3.02-2.39,5.83.02.89.23,1.69.59,2.32,1.56,1.35,3.55,2.49,6.32,2.51.66,0,1.31-.11,1.84-.17-3.55.11-4.84-1.99-4.92-4.16Z"/>
  </g>
  <g>
    <path class="cls-1" d="M39.82,5.33c3.4,0,5.49,1.59,5.49,4.59,0,2.14-.97,3.64-2.81,4.28v.05c1.64.21,2.52,1.57,2.52,3.64,0,2.26.33,3.73.93,4.42h-3.19c-.31-.43-.45-1.19-.45-2.52,0-1.85-.29-3.04-.83-3.61-.55-.57-1.36-.86-2.45-.86h-4.47v6.99h-2.97V5.33h8.23ZM39.51,13.06c1.78,0,2.83-.88,2.83-2.71s-.86-2.59-2.85-2.59h-4.92v5.3h4.95Z"/>
    <path class="cls-1" d="M59.79,16.15c0,3.83-2.35,6.49-6.21,6.49s-6.21-2.64-6.21-6.49,2.35-6.47,6.21-6.47,6.21,2.71,6.21,6.47ZM53.58,20.5c2.4,0,3.49-2.21,3.49-4.35s-1.07-4.33-3.52-4.33-3.47,2.16-3.47,4.33,1.09,4.35,3.49,4.35Z"/>
    <path class="cls-1" d="M72.84,13.77v8.54h-2.71v-7.68c0-1.57-.55-2.81-2.4-2.81s-2.97,1.57-2.97,3.16v7.32h-2.71v-12.29h2.57v1.81l.05.05c.88-1.43,2.28-2.19,3.85-2.19,2.83,0,4.33,1.62,4.33,4.09Z"/>
    <path class="cls-1" d="M87.26,5.33v16.98h-2.57v-1.66h-.05c-.74,1.36-2.14,2-3.8,2-3.52,0-5.75-2.5-5.75-6.56s2.28-6.39,5.33-6.39c1.76,0,3.35.74,4.09,1.93h.05v-6.28h2.71ZM81.2,20.5c2.16,0,3.45-1.9,3.45-4.35,0-2.66-1.26-4.33-3.42-4.33s-3.42,1.85-3.42,4.47c0,2.38,1.28,4.21,3.4,4.21Z"/>
    <path class="cls-1" d="M102.93,10.34h-2.97v-.02c-.19-2-1.38-2.97-3.66-2.97-1.78,0-3.11.78-3.11,2.21,0,1.12.71,1.85,2.16,2.23l4.54,1.19c1.45.38,3.52,1.76,3.52,4.4,0,3.35-2.76,5.33-6.75,5.33-4.26,0-7.01-2.16-7.09-6.06h2.97c.02,2.42,1.71,3.64,4.3,3.64,2.28,0,3.59-1.07,3.59-2.57,0-1.07-.52-1.81-1.4-2.09-.95-.31-1.69-.52-4.85-1.33-2.69-.67-3.97-2.16-3.97-4.38,0-3.45,3.12-4.99,6.21-4.99,3.69,0,6.49,2,6.51,5.42Z"/>
    <path class="cls-1" d="M107.23,10.01l3.21,9.18h.05l3.11-9.18h2.83l-4.73,12.84c-.5,1.4-.97,2.33-1.36,2.85-.74,1.07-1.69,1.47-3.07,1.47-.57,0-1.19-.05-1.85-.14v-2.28c.4.05.74.17,1.28.17.88,0,1.43-.38,1.69-1.12l.52-1.55-4.66-12.24h2.97Z"/>
    <path class="cls-1" d="M128.74,13.77v8.54h-2.71v-7.68c0-1.57-.55-2.81-2.4-2.81s-2.97,1.57-2.97,3.16v7.32h-2.71v-12.29h2.57v1.81l.05.05c.88-1.43,2.28-2.19,3.85-2.19,2.83,0,4.33,1.62,4.33,4.09Z"/>
    <path class="cls-1" d="M142.6,14.13h-2.71c-.21-1.48-1.24-2.31-2.81-2.31-2.09,0-3.38,1.5-3.38,4.47,0,2.38,1.14,4.21,3.26,4.21,1.55,0,2.64-.95,2.92-2.81h2.71c-.52,3.23-2.52,4.95-5.64,4.95-3.59,0-5.97-2.42-5.97-6.35s2.19-6.61,6.06-6.61c3.19,0,5.28,1.64,5.54,4.45Z"/>
  </g>
</svg>
