<?xml version="1.0" encoding="UTF-8"?>
<svg id="_レイヤー_1" data-name="レイヤー 1" xmlns="http://www.w3.org/2000/svg" xmlns:xlink="http://www.w3.org/1999/xlink" viewBox="0 0 261.07 31.99">
  <defs>
    <style>
      .cls-1 {
        fill: #fff;
      }

      .cls-2 {
        fill: url(#_名称未設定グラデーション_2);
      }

      .cls-3 {
        fill: #cecece;
      }

      .cls-4 {
        fill: url(#_名称未設定グラデーション);
      }

      .cls-5 {
        fill: url(#_名称未設定グラデーション_3);
      }
    </style>
    <linearGradient id="_名称未設定グラデーション" data-name="名称未設定グラデーション" x1="17.09" y1="-342.25" x2="-1.36" y2="-325.4" gradientTransform="translate(0 -314.33) scale(1 -1)" gradientUnits="userSpaceOnUse">
      <stop offset="0" stop-color="#0071c6"/>
      <stop offset=".5" stop-color="#00c8fd"/>
      <stop offset="1" stop-color="#0acaff"/>
    </linearGradient>
    <linearGradient id="_名称未設定グラデーション_2" data-name="名称未設定グラデーション 2" x1="21.59" y1="-316.34" x2="5.8" y2="-337.49" gradientTransform="translate(0 -314.33) scale(1 -1)" gradientUnits="userSpaceOnUse">
      <stop offset="0" stop-color="#00e8fd"/>
      <stop offset="1" stop-color="#0071c6"/>
    </linearGradient>
    <linearGradient id="_名称未設定グラデーション_3" data-name="名称未設定グラデーション 3" x1="19.06" y1="-320.25" x2="6.07" y2="-336.98" gradientTransform="translate(0 -314.33) scale(1 -1)" gradientUnits="userSpaceOnUse">
      <stop offset="0" stop-color="#00d2fc"/>
      <stop offset="1" stop-color="#0071c6"/>
    </linearGradient>
  </defs>
  <g>
    <path class="cls-4" d="M19.78,24.84c-.91.23-3.02.51-4.84-.42-.55.06-1.27.19-2.18.23-1.48.02-3.99-.3-6.57-2.49-1.31-.99-3.76-3.93-3.76-8.26.02-1.48.46-3,.7-3.8-.51-.8-1.04-1.99-1.37-3.4-1.01,1.73-1.75,3.87-1.75,6.87,0,6.49,4.97,13.38,13.23,13.38,2.37,0,4.75-.59,6.95-1.92l.61-.42v-.15s-1.01.4-1.01.4Z"/>
    <path class="cls-2" d="M2.54,5.48C4.08,3.48,7.4.24,13.06.26c6.8,0,12.93,5.75,12.93,13.29,0,2.98-1.04,6.17-3.34,9.07-.25-.85-.63-1.58-1.23-2.24,1.08-1.5,2.07-3.63,2.07-6.42,0-4.48-3.4-10.95-10.4-10.95-1.58,0-3.06.34-4.71,1.2-1.46-.02-3.82.21-5.85,1.27Z"/>
    <path class="cls-5" d="M16.57,17.23c1.94-.55,3.87-2.07,4.12-4.86.27-2.89-1.56-7.16-7.21-7.18h-3.09c-2.11,0-3.91.27-4.8.36l-3.38.38,5.01,3.97c.61-.4,1.48-.95,2.26-.95h4.9c1.33,0,2.35,1.12,2.35,2.6,0,1.08-.76,2.32-2.24,2.32h-6.09l8.22,9.53,1.61.25c1.14.17,2.26.34,3.78.15l.02-.02s-5.47-6.55-5.47-6.55ZM9.4,20.32c-.04-1.1.34-2.35,1.01-3.3l-2.45-3.04c-.95.99-2.37,3.02-2.39,5.83.02.89.23,1.69.59,2.32,1.56,1.35,3.55,2.49,6.32,2.51.66,0,1.31-.11,1.84-.17-3.55.11-4.84-1.99-4.92-4.16Z"/>
  </g>
  <g>
    <path class="cls-1" d="M43.22.58c4.89,0,7.89,2.29,7.89,6.59,0,3.07-1.4,5.23-4.03,6.15v.07c2.36.31,3.62,2.26,3.62,5.23,0,3.25.48,5.36,1.33,6.36h-4.58c-.44-.62-.65-1.71-.65-3.62,0-2.67-.41-4.37-1.2-5.2-.79-.82-1.95-1.23-3.52-1.23h-6.42v10.05h-4.27V.58h11.83ZM42.78,11.69c2.56,0,4.07-1.26,4.07-3.9s-1.23-3.73-4.1-3.73h-7.07v7.62h7.11Z"/>
    <path class="cls-1" d="M71.92,16.13c0,5.5-3.38,9.33-8.92,9.33s-8.92-3.79-8.92-9.33,3.38-9.3,8.92-9.3,8.92,3.9,8.92,9.3ZM63,22.38c3.45,0,5.02-3.18,5.02-6.25s-1.54-6.22-5.06-6.22-4.99,3.11-4.99,6.22,1.57,6.25,5.02,6.25Z"/>
    <path class="cls-1" d="M90.68,12.71v12.27h-3.9v-11.04c0-2.26-.79-4.03-3.45-4.03s-4.27,2.26-4.27,4.54v10.53h-3.9V7.31h3.69v2.6l.07.07c1.27-2.05,3.28-3.14,5.54-3.14,4.07,0,6.22,2.32,6.22,5.88Z"/>
    <path class="cls-1" d="M111.41.58v24.4h-3.69v-2.39h-.07c-1.06,1.95-3.07,2.87-5.47,2.87-5.06,0-8.27-3.59-8.27-9.43s3.28-9.19,7.65-9.19c2.53,0,4.82,1.06,5.88,2.77h.07V.58h3.9ZM102.7,22.38c3.11,0,4.95-2.73,4.95-6.25,0-3.83-1.81-6.22-4.92-6.22s-4.92,2.67-4.92,6.42c0,3.42,1.85,6.05,4.89,6.05Z"/>
    <path class="cls-1" d="M133.93,7.79h-4.27v-.03c-.27-2.87-1.98-4.27-5.26-4.27-2.56,0-4.48,1.13-4.48,3.18,0,1.61,1.02,2.67,3.11,3.21l6.53,1.71c2.09.55,5.06,2.53,5.06,6.32,0,4.82-3.96,7.65-9.7,7.65-6.12,0-10.08-3.11-10.18-8.71h4.27c.04,3.48,2.46,5.23,6.19,5.23,3.28,0,5.16-1.54,5.16-3.69,0-1.54-.75-2.6-2.01-3.01-1.37-.44-2.43-.75-6.97-1.91-3.86-.96-5.71-3.11-5.71-6.29,0-4.95,4.48-7.18,8.92-7.18,5.3,0,9.33,2.87,9.36,7.79Z"/>
    <path class="cls-1" d="M140.11,7.31l4.61,13.19h.07l4.48-13.19h4.07l-6.8,18.45c-.72,2.02-1.4,3.35-1.95,4.1-1.06,1.54-2.43,2.12-4.41,2.12-.82,0-1.71-.07-2.67-.21v-3.28c.58.07,1.06.24,1.84.24,1.27,0,2.05-.55,2.43-1.61l.75-2.22-6.7-17.6h4.27Z"/>
    <path class="cls-1" d="M171.03,12.71v12.27h-3.9v-11.04c0-2.26-.79-4.03-3.45-4.03s-4.27,2.26-4.27,4.54v10.53h-3.9V7.31h3.69v2.6l.07.07c1.27-2.05,3.28-3.14,5.54-3.14,4.07,0,6.22,2.32,6.22,5.88Z"/>
    <path class="cls-1" d="M190.95,13.23h-3.9c-.31-2.12-1.78-3.32-4.03-3.32-3.01,0-4.85,2.15-4.85,6.42,0,3.42,1.64,6.05,4.68,6.05,2.22,0,3.79-1.37,4.2-4.03h3.9c-.75,4.65-3.62,7.11-8.1,7.11-5.16,0-8.58-3.48-8.58-9.12s3.15-9.5,8.72-9.5c4.58,0,7.59,2.36,7.96,6.39Z"/>
  </g>
  <path class="cls-3" d="M205.45,8.77c4.3,0,7.06,3.05,7.06,8.13s-2.75,8.13-7.1,8.13h-6.81V8.77h6.85ZM204.36,22.7c3.66,0,5.3-1.8,5.3-5.8,0-3.3-1.07-5.81-5.28-5.81h-2.94v11.61h2.91Z"/>
  <path class="cls-3" d="M229.75,16.89c0,4.67-2.96,8.51-7.78,8.51s-7.78-3.87-7.78-8.51,2.94-8.51,7.78-8.51,7.78,3.89,7.78,8.51ZM221.96,23.08c3.5,0,4.94-3.1,4.94-6.19s-1.46-6.19-4.96-6.19-4.92,3.12-4.92,6.19,1.46,6.19,4.94,6.19Z"/>
  <path class="cls-3" d="M246.17,13.93h-2.85c-.57-2.16-1.91-3.23-4.05-3.23-3.1,0-4.94,2.57-4.94,6.19s1.82,6.19,4.94,6.19c2.32,0,3.85-1.64,4.14-4.26h2.78c-.29,3.89-2.91,6.58-6.92,6.58-2.3,0-4.17-.82-5.62-2.41-1.43-1.62-2.16-3.66-2.16-6.1,0-4.64,2.89-8.51,7.78-8.51,3.76,0,6.53,2.12,6.9,5.55Z"/>
  <path class="cls-3" d="M260.61,13.57h-2.85v-.02c-.18-1.91-1.32-2.85-3.5-2.85-1.71,0-2.98.75-2.98,2.12,0,1.07.68,1.78,2.07,2.14l4.35,1.14c1.39.36,3.37,1.68,3.37,4.21,0,3.21-2.64,5.1-6.46,5.1-4.07,0-6.72-2.07-6.78-5.81h2.85c.02,2.32,1.64,3.48,4.12,3.48,2.19,0,3.44-1.02,3.44-2.46,0-1.02-.5-1.73-1.34-2-.91-.3-1.62-.5-4.64-1.28-2.57-.64-3.8-2.07-3.8-4.19,0-3.3,2.98-4.78,5.94-4.78,3.53,0,6.21,1.91,6.24,5.19Z"/>
</svg>