<svg xmlns="http://www.w3.org/2000/svg" width="160" height="26" viewBox="0 0 160 26" preserveAspectRatio="xMidYMid meet" role="img" aria-label="RondoSync logo"><defs><linearGradient id="rondo-gradient-1" x1="66.81" x2="-789.86" y1="-5392.1" y2="-4609.99" gradientTransform="matrix(1 0 0 -1 726.5 -4108.08)" gradientUnits="userSpaceOnUse"><stop offset="0" stop-color="#0071c6"/><stop offset=".5" stop-color="#00c8fd"/><stop offset="1" stop-color="#0acaff"/></linearGradient><linearGradient id="rondo-gradient-2" x1="276.12" x2="-457.44" y1="-4189.14" y2="-5171.1" gradientTransform="matrix(1 0 0 -1 726.5 -4108.08)" gradientUnits="userSpaceOnUse"><stop offset="0" stop-color="#00e8fd"/><stop offset="1" stop-color="#0071c6"/></linearGradient><linearGradient id="rondo-gradient-3" x1="158.22" x2="-444.46" y1="-4371.07" y2="-5147.79" gradientTransform="matrix(1 0 0 -1 726.5 -4108.08)" gradientUnits="userSpaceOnUse"><stop offset="0" stop-color="#00d2fc"/><stop offset="1" stop-color="#0071c6"/></linearGradient><style>.cls-4{fill:#ffffff}</style></defs><g transform="translate(0 0.034270) scale(0.020944053)" shape-rendering="geometricPrecision"><path d="M918.08 1137.71c-42.19 10.79-140.08 26.84-224.45-16.33-25.51 2.94-58.86 8.83-101.05 10.79-68.68.98-185.42-13.74-305.12-115.77-60.83-46.11-174.63-182.48-174.63-383.6.98-68.68 21.58-139.31 32.38-176.59-23.55-37.28-48.07-92.22-63.77-157.95C34.34 378.7 0 477.79 0 617.1c0 301.19 230.55 621.02 614.16 621.02 109.88 0 220.74-27.47 322.77-89.28l28.45-19.62v-6.87l-47.31 15.35Z" style="fill:url(#rondo-gradient-1)"/><path d="M117.73 242.33C189.35 149.13 343.38-.98 606.31 0c315.9 0 600.42 266.86 600.42 617.1 0 138.33-48.07 286.47-155.01 420.88-11.77-39.24-29.43-73.58-56.9-103.99 50.03-69.66 96.15-168.75 96.15-298.25 0-207.99-157.95-508.2-482.69-508.2-73.58 0-142.26 15.7-218.78 55.92-67.69-.98-177.58 9.81-271.76 58.86Z" style="fill:url(#rondo-gradient-2)"/><path d="M769.17 787.81c90.26-25.51 179.54-96.15 191.31-225.65 12.75-134.41-72.6-332.59-334.55-333.57H482.69c-98.11 0-181.5 12.75-222.7 16.68l-156.97 17.66 232.52 184.44c28.45-18.64 68.68-44.15 104.98-44.15h227.61c61.81 0 108.9 52 108.9 120.67 0 50.03-35.32 107.92-103.99 107.92H390.49l381.64 442.47s125.03 29.13 250.17 18.64l.98-.98zM436.58 931.05c-1.96-51.02 15.7-108.9 47.09-153.05L368.41 646.33C324.26 692.44 259.98 777.02 259 907.51c.98 41.21 10.79 78.49 27.47 107.92 72.6 62.79 164.82 115.77 293.34 116.75 33.16 1.19 88.89-7.5 113.81-10.79-164.82 4.91-253.12-89.28-257.04-190.33Z" style="fill:url(#rondo-gradient-3)"/><path d="M2142.24 982c-10.39-17.13-16.6-36.38-18.45-57.23a689 689 0 0 1-2.82-61.04c0-36.8-2.29-68.98-6.79-95.66-4.51-26.69-12.91-49.21-24.96-66.93-12.07-17.71-28.7-30.9-49.43-39.21-20.73-8.28-47.62-12.48-79.93-12.48h-208.62V982h-140.39V175.39h385.21c88.43 0 155.68 19.37 199.88 57.56 44.17 38.18 66.56 92.1 66.56 160.24 0 38.21-5.69 70.3-16.92 95.37-11.23 25.09-24.51 45.59-39.49 60.93-14.98 15.35-29.96 26.54-44.53 33.26-14.62 6.75-25.44 11.31-32.19 13.55l-.34.11v3.06l.44.05c11.97 1.51 25.05 5.3 38.89 11.27 13.82 5.99 26.89 15.65 38.85 28.72 11.97 13.11 22.02 30.37 29.88 51.3 7.86 20.97 11.85 47.55 11.85 79 0 47.39 3.62 90.99 10.75 129.6 7.02 38.12 18.04 65.88 32.74 82.55h-150.17Zm-391.01-439.01h232.38c45.16 0 79.9-10.89 103.27-32.37 23.38-21.5 35.23-54.16 35.23-97.08 0-25.55-3.82-46.75-11.36-62.99-7.55-16.21-18.07-29.03-31.28-38.09-13.19-9.04-28.48-15.16-45.44-18.18a303 303 0 0 0-52.68-4.53h-230.12z" class="cls-4"/><path d="M1996.05 175.89c44.18 0 83.38 4.84 116.5 14.38 33.07 9.53 61.01 24.02 83.05 43.06a183 183 0 0 1 49.78 68.63c11.02 26.53 16.61 57.22 16.61 91.23 0 38.14-5.68 70.16-16.88 95.17-11.2 25.03-24.46 45.48-39.39 60.79s-29.87 26.46-44.38 33.16c-14.6 6.74-25.42 11.29-32.14 13.53l-.68.23v3.87l.88.11c11.92 1.5 24.96 5.28 38.75 11.23 13.75 5.96 26.76 15.58 38.68 28.6 11.93 13.07 21.95 30.27 29.78 51.14 7.84 20.91 11.81 47.43 11.81 78.82 0 47.41 3.62 91.05 10.76 129.69 6.93 37.59 17.73 65.14 32.13 81.96h-148.79c-10.26-17-16.4-36.1-18.23-56.78a688 688 0 0 1-2.82-60.99c0-36.83-2.29-69.04-6.8-95.75-4.52-26.76-12.95-49.35-25.04-67.13-12.13-17.79-28.84-31.05-49.66-39.39-20.79-8.3-47.74-12.51-80.11-12.51h-209.12v332.55h-139.39v-805.6h384.71m-245.33 367.6h232.88c45.29 0 80.14-10.93 103.61-32.5 23.48-21.6 35.39-54.38 35.39-97.45 0-25.63-3.84-46.89-11.4-63.2-7.59-16.3-18.17-29.18-31.45-38.3-13.25-9.08-28.6-15.22-45.64-18.26a304 304 0 0 0-52.77-4.54h-230.62zm245.32-368.59h-385.71v807.6h141.39V649.95h208.12q48.62 0 79.74 12.44 31.1 12.46 49.2 39.02 18.09 26.6 24.88 66.74 6.78 40.17 6.79 95.58 0 29.43 2.83 61.08 2.8 31.68 18.66 57.69h151.57q-22.63-24.87-33.37-83.14-10.75-58.24-10.74-129.51 0-47.5-11.88-79.18-11.89-31.65-29.97-51.47-18.1-19.77-39.02-28.84-20.94-9.04-39.02-11.31v-2.26q10.18-3.4 32.24-13.57 22.04-10.17 44.68-33.37 22.62-23.17 39.59-61.08 16.97-37.89 16.97-95.58 0-102.92-66.74-160.62-66.76-57.69-200.2-57.69Zm-244.32 367.6V290.25h229.62q27.15.01 52.59 4.52 25.45 4.53 45.25 18.1 19.78 13.58 31.11 37.89 11.3 24.33 11.31 62.78-.01 64.47-35.06 96.71-35.07 32.24-102.93 32.24z"/><path d="M2634.87 997.83c-46.44 0-88.43-7.79-124.79-23.15-36.32-15.34-67.47-36.8-92.58-63.79-25.12-26.98-44.49-59.65-57.58-97.1-13.12-37.45-19.77-79.26-19.77-124.26s6.65-85.65 19.77-123.12c13.1-37.46 32.47-70.13 57.58-97.1 25.08-26.96 56.23-48.42 92.58-63.79s78.35-23.15 124.79-23.15 88.41 7.79 124.79 23.15c36.33 15.36 67.48 36.82 92.58 63.79s44.46 59.64 57.58 97.1c13.12 37.52 19.77 78.95 19.77 123.12s-6.65 86.75-19.77 124.26c-13.11 37.45-32.48 70.12-57.58 97.1-25.13 26.99-56.28 48.45-92.58 63.79-36.38 15.36-78.37 23.15-124.79 23.15m0-514.65c-28.6 0-53.8 6.11-74.9 18.16-21.08 12.05-38.64 27.89-52.19 47.09-13.57 19.22-23.68 41.54-30.05 66.33-6.39 24.79-9.63 49.95-9.63 74.78s3.24 50.95 9.63 75.35c6.37 24.42 16.48 46.74 30.05 66.33a158.4 158.4 0 0 0 52.19 47.66c21.07 12.05 46.27 18.16 74.9 18.16s53.82-6.11 74.9-18.16a158 158 0 0 0 52.19-47.66c13.53-19.54 23.64-41.86 30.05-66.33 6.39-24.47 9.63-49.82 9.63-75.35s-3.24-49.92-9.63-74.78c-6.41-24.84-16.52-47.16-30.05-66.33s-31.09-35.02-52.19-47.08c-21.12-12.05-46.32-18.16-74.9-18.16Z" class="cls-4"/><path d="M2634.87 382.88c46.36 0 88.28 7.77 124.6 23.11 36.26 15.34 67.35 36.76 92.41 63.67 25.04 26.92 44.38 59.53 57.47 96.92 13.1 37.46 19.74 78.83 19.74 122.96s-6.64 86.64-19.74 124.09c-13.09 37.39-32.42 70-57.47 96.92-25.08 26.94-56.17 48.36-92.41 63.67-36.32 15.33-78.24 23.11-124.6 23.11s-88.3-7.77-124.6-23.11c-36.26-15.31-67.35-36.73-92.41-63.67-25.07-26.93-44.41-59.54-57.47-96.92-13.1-37.4-19.74-79.15-19.74-124.09s6.64-85.54 19.74-122.96c13.08-37.4 32.42-70.01 57.47-96.92 25.03-26.91 56.12-48.33 92.41-63.67 36.3-15.33 78.22-23.11 124.6-23.11m0 514.65c28.7 0 53.99-6.13 75.15-18.23a159 159 0 0 0 52.36-47.81c13.57-19.59 23.7-41.96 30.12-66.49 6.4-24.51 9.65-49.9 9.65-75.47s-3.25-50-9.65-74.9c-6.42-24.9-16.56-47.27-30.13-66.5-13.58-19.24-31.19-35.13-52.35-47.23-21.19-12.1-46.48-18.23-75.15-18.23s-53.97 6.13-75.15 18.23c-21.15 12.09-38.76 27.98-52.35 47.23-13.6 19.27-23.74 41.64-30.12 66.5-6.4 24.83-9.65 50.03-9.65 74.9s3.25 51.03 9.65 75.47c6.39 24.48 16.52 46.85 30.12 66.49a159 159 0 0 0 52.36 47.81c21.15 12.1 46.43 18.23 75.15 18.23m-.01-515.65q-70.14 0-124.99 23.19-54.87 23.19-92.75 63.91-37.9 40.73-57.69 97.27-19.8 56.58-19.8 123.29c0 66.71 6.59 86.72 19.8 124.42q19.77 56.57 57.69 97.27 37.88 40.73 92.75 63.91 54.84 23.18 124.99 23.19c70.15.01 88.4-7.74 124.99-23.19q54.85-23.18 92.75-63.91 37.88-40.72 57.69-97.27t19.8-124.42c0-67.87-6.61-85.57-19.8-123.29q-19.8-56.56-57.69-97.27t-92.75-63.91q-54.87-23.18-124.99-23.19m0 514.65q-43 0-74.65-18.1a157 157 0 0 1-52.03-47.51q-20.37-29.4-29.97-66.17-9.62-36.76-9.62-75.22c0-38.46 3.2-49.77 9.62-74.65q9.6-37.32 29.97-66.17 20.35-28.84 52.03-46.94 31.66-18.09 74.65-18.1c42.99-.01 53.53 6.04 74.65 18.1q31.66 18.1 52.03 46.94 20.35 28.85 29.98 66.17 9.6 37.32 9.61 74.65c.01 37.33-3.22 50.72-9.61 75.22q-9.62 36.77-29.98 66.17-20.37 29.43-52.03 47.51-31.68 18.1-74.65 18.1"/><path d="M3406.09 982V614.89c-1.52-45.92-11.45-79.7-29.53-100.43-18.12-20.75-46.79-31.28-85.21-31.28-21.84 0-41.7 4.01-59.03 11.92a128.5 128.5 0 0 0-44.28 32.93c-12.05 13.93-21.59 30.54-28.37 49.36-6.77 18.83-10.21 39.06-10.21 60.12V982h-127.95V398.21h121.16v85.67l2.86 2.86.33-.55c19.46-32.18 45.28-57.81 76.74-76.18 31.46-18.34 66.76-27.64 104.94-27.64 63.66 0 114.54 16.7 151.23 49.64 36.67 32.95 55.26 83.06 55.26 148.93v401.04h-127.95Z" class="cls-4"/><path d="M3327.55 382.88c31.78 0 60.6 4.17 85.65 12.39 25.01 8.21 46.97 20.7 65.25 37.12 18.26 16.41 32.16 37.21 41.29 61.82 9.16 24.66 13.8 53.84 13.8 86.74v400.54h-126.95V614.85c-1.52-46.02-11.5-79.91-29.66-100.72-18.22-20.87-47.01-31.45-85.59-31.45-21.92 0-41.85 4.03-59.23 11.97a129 129 0 0 0-44.45 33.06c-12.09 13.98-21.66 30.64-28.46 49.52-6.79 18.88-10.24 39.17-10.24 60.29v343.99h-126.95v-582.8h120.16v85.38l.29.29 2.26 2.26.9.9.66-1.09c19.42-32.11 45.18-57.68 76.56-76 31.38-18.3 66.6-27.58 104.69-27.58m.02-.99q-57.69 0-105.19 27.71-47.51 27.74-76.92 76.35l-2.26-2.26v-85.96h-122.16V982.5h128.95V637.51q0-31.65 10.18-59.95 10.18-28.26 28.28-49.2 18.08-20.92 44.11-32.8 26-11.88 58.82-11.88 57.7 0 84.83 31.11 27.14 31.12 29.41 100.1V982.5h128.95V580.96q-.01-99.52-55.42-149.31-55.44-49.76-151.57-49.77Z"/><path d="M3899.18 997.83c-45.71 0-86.16-8.17-120.25-24.27-34.08-16.09-62.75-38.31-85.22-66.03-22.47-27.7-39.57-60.94-50.81-98.8-11.25-37.84-16.95-79.09-16.95-122.58 0-52.5 7.22-98.48 21.46-136.69 14.22-38.2 33.4-70.11 57.01-94.84 23.58-24.7 50.91-43.11 81.26-54.74 30.35-11.61 61.69-17.5 93.14-17.5 17.98 0 36.6 1.71 55.33 5.08a246 246 0 0 1 54.18 16.37 215 215 0 0 1 47.96 28.78 161 161 0 0 1 36.65 41.16l.15.24h3.04V175.39h127.95V982h-121.16v-79.18h-3.07l-.14.27c-17.22 33.67-42.64 58.14-75.54 72.73-32.97 14.61-68.29 22.01-104.99 22.01m19.23-514.65c-30.12 0-55.89 6.3-76.61 18.73a158 158 0 0 0-51.06 48.79c-13.17 19.93-22.7 42.82-28.35 68.03a356 356 0 0 0-8.5 77.59c0 24.84 3.24 49.62 9.63 73.65 6.38 24.07 16.3 45.82 29.48 64.63a150 150 0 0 0 50.5 45.4c20.34 11.3 44.78 17.03 72.63 17.03s53.62-6.11 74.34-18.17a155 155 0 0 0 51.07-47.66c13.16-19.57 23.08-41.89 29.48-66.32a298 298 0 0 0 9.63-75.35c0-64.65-14.69-115.75-43.66-151.88-29-36.15-68.9-54.48-118.59-54.48Z" class="cls-4"/><path d="M4203.58 175.89V981.5h-120.16v-79.18h-3.87l-.28.54c-17.17 33.57-42.5 57.96-75.3 72.5-32.91 14.58-68.16 21.97-104.79 21.97-45.63 0-86.02-8.15-120.04-24.22-34.01-16.06-62.62-38.23-85.05-65.9-22.43-27.65-39.5-60.84-50.72-98.63-11.23-37.8-16.93-78.99-16.93-122.44 0-52.44 7.21-98.37 21.43-136.52 14.2-38.13 33.34-69.98 56.91-94.67 23.52-24.64 50.8-43.02 81.07-54.62 30.3-11.59 61.57-17.47 92.96-17.47 17.95 0 36.54 1.71 55.25 5.07a245 245 0 0 1 54.07 16.33 215 215 0 0 1 47.85 28.71 160 160 0 0 1 36.53 41.03l.29.47h3.82V175.89zm-287.42 721.64c28.7 0 53.8-6.13 74.59-18.23a155 155 0 0 0 51.23-47.81c13.2-19.62 23.14-41.98 29.54-66.47 6.4-24.51 9.65-49.9 9.65-75.47 0-64.77-14.73-115.97-43.77-152.19-29.1-36.27-69.13-54.67-118.98-54.67-30.21 0-56.07 6.33-76.86 18.81a158.5 158.5 0 0 0-51.22 48.94c-13.2 19.99-22.76 42.93-28.42 68.2a356 356 0 0 0-8.51 77.7 287 287 0 0 0 9.65 73.78c6.4 24.13 16.34 45.93 29.56 64.79a150 150 0 0 0 50.67 45.55c20.41 11.34 44.93 17.09 72.88 17.09m288.42-722.66h-128.95V473.5h-2.26a160 160 0 0 0-36.76-41.29 214 214 0 0 0-48.07-28.84 245 245 0 0 0-54.29-16.4 313 313 0 0 0-55.42-5.09q-47.5 0-93.32 17.53t-81.44 54.86q-35.63 37.33-57.12 95.01-21.5 57.7-21.49 136.86 0 65.62 16.97 122.73 16.97 57.13 50.9 98.97 33.92 41.86 85.4 66.17 51.46 24.32 120.46 24.32 55.4 0 105.19-22.06 49.75-22.05 75.79-72.96h2.26v79.18h122.16v-807.6Zm-288.43 721.64q-41.86 0-72.39-16.96a148.6 148.6 0 0 1-50.33-45.25q-19.8-28.26-29.41-64.47a285 285 0 0 1-9.61-73.52q0-39.58 8.48-77.48 8.48-37.89 28.28-67.87a157 157 0 0 1 50.9-48.64q31.1-18.66 76.35-18.66 74.65 0 118.2 54.29t43.55 151.57q-.01 38.46-9.62 75.22-9.62 36.77-29.41 66.17a153.5 153.5 0 0 1-50.9 47.51q-31.12 18.1-74.09 18.1Z"/><path d="M4591.18 997.83c-46.45 0-88.43-7.79-124.79-23.15-36.32-15.34-67.47-36.8-92.58-63.79-25.12-26.98-44.49-59.65-57.58-97.1-13.12-37.45-19.77-79.26-19.77-124.26s6.65-85.65 19.77-123.12c13.1-37.46 32.47-70.13 57.58-97.1 25.08-26.96 56.23-48.42 92.58-63.79s78.35-23.15 124.79-23.15 88.41 7.79 124.79 23.15c36.33 15.36 67.48 36.82 92.58 63.79s44.46 59.63 57.58 97.1c13.12 37.52 19.77 78.95 19.77 123.12s-6.65 86.76-19.77 124.26c-13.11 37.46-32.48 70.12-57.58 97.1-25.13 26.99-56.28 48.45-92.58 63.79-36.38 15.36-78.37 23.15-124.79 23.15m0-514.65c-28.6 0-53.8 6.11-74.9 18.16-21.08 12.05-38.64 27.89-52.19 47.09-13.57 19.22-23.67 41.54-30.05 66.33-6.39 24.78-9.63 49.94-9.63 74.78s3.24 50.95 9.63 75.35c6.37 24.42 16.48 46.74 30.05 66.33a158.4 158.4 0 0 0 52.19 47.66c21.07 12.05 46.27 18.16 74.9 18.16s53.82-6.11 74.9-18.16a158 158 0 0 0 52.19-47.66c13.53-19.54 23.64-41.85 30.05-66.33 6.39-24.47 9.63-49.82 9.63-75.35s-3.24-49.92-9.63-74.78c-6.41-24.85-16.52-47.16-30.05-66.33s-31.09-35.02-52.19-47.08c-21.12-12.05-46.32-18.16-74.9-18.16Z" class="cls-4"/><path d="M4591.18 382.88c46.36 0 88.28 7.77 124.6 23.11 36.26 15.34 67.35 36.76 92.41 63.67 25.04 26.92 44.38 59.53 57.47 96.92 13.1 37.46 19.74 78.83 19.74 122.96s-6.64 86.64-19.74 124.09c-13.09 37.39-32.42 70-57.47 96.92-25.08 26.94-56.17 48.36-92.41 63.67-36.32 15.33-78.24 23.11-124.6 23.11s-88.3-7.77-124.6-23.11c-36.26-15.31-67.35-36.73-92.41-63.67-25.07-26.93-44.41-59.54-57.47-96.92-13.1-37.4-19.74-79.15-19.74-124.09s6.64-85.54 19.74-122.96c13.08-37.4 32.41-70.01 57.47-96.92 25.03-26.91 56.12-48.33 92.41-63.67 36.3-15.33 78.22-23.11 124.6-23.11m0 514.65c28.7 0 53.99-6.13 75.15-18.23a159 159 0 0 0 52.36-47.81c13.57-19.59 23.7-41.96 30.12-66.49 6.4-24.51 9.65-49.9 9.65-75.47s-3.25-50-9.65-74.9c-6.42-24.9-16.56-47.27-30.13-66.5-13.58-19.24-31.19-35.13-52.35-47.23-21.19-12.1-46.48-18.23-75.15-18.23s-53.97 6.13-75.15 18.23c-21.15 12.09-38.76 27.98-52.35 47.23-13.6 19.27-23.74 41.64-30.12 66.5-6.4 24.83-9.65 50.03-9.65 74.9s3.25 51.03 9.65 75.47c6.39 24.48 16.52 46.85 30.12 66.49a159 159 0 0 0 52.36 47.81c21.15 12.1 46.43 18.23 75.15 18.23m-.01-515.65q-70.14 0-124.99 23.19-54.87 23.19-92.75 63.91-37.9 40.73-57.69 97.27-19.8 56.58-19.8 123.29c0 66.71 6.59 86.72 19.8 124.42q19.77 56.57 57.69 97.27 37.88 40.73 92.75 63.91 54.85 23.18 124.99 23.19c70.14.01 88.4-7.74 124.99-23.19q54.85-23.18 92.75-63.91 37.88-40.72 57.69-97.27t19.8-124.42c0-67.87-6.61-85.57-19.8-123.29q-19.8-56.56-57.69-97.27t-92.75-63.91q-54.87-23.18-124.99-23.19m0 514.65q-43 0-74.65-18.1a157 157 0 0 1-52.03-47.51q-20.37-29.4-29.97-66.17-9.62-36.76-9.62-75.22c0-38.46 3.2-49.77 9.62-74.65q9.6-37.32 29.97-66.17 20.35-28.84 52.03-46.94 31.66-18.09 74.65-18.1c42.99-.01 53.53 6.04 74.65 18.1q31.66 18.1 52.03 46.94 20.35 28.85 29.98 66.17 9.6 37.32 9.61 74.65c.01 37.33-3.22 50.72-9.61 75.22q-9.62 36.77-29.98 66.17-20.37 29.43-52.03 47.51-31.68 18.1-74.65 18.1"/><path d="M5387.69 1020.45c-45.74 0-89.46-5.7-129.94-16.95-40.5-11.25-76.21-28.73-106.15-51.95-29.96-23.2-54.27-53.4-72.25-89.75-17.93-36.22-27.42-79.55-28.22-128.79h140.38c.06 30.67 5.4 57.21 15.88 78.9 10.53 21.84 25.43 39.98 44.27 53.91 18.8 13.93 40.74 24.23 65.21 30.62 24.4 6.39 51.27 9.63 79.87 9.63 30.85 0 57.54-3.62 79.33-10.77 21.82-7.14 39.76-16.5 53.33-27.8s23.5-24.49 29.55-39.22c6.03-14.71 9.09-29.81 9.09-44.87 0-30.9-7.09-54.04-21.06-68.78-13.93-14.67-29.41-25.18-46-31.23-28.5-10.49-62.2-20.58-100.15-29.99-38.1-9.42-85.47-21.79-140.81-36.76-34.48-8.99-63.55-20.96-86.39-35.57-22.83-14.58-41.24-31.1-54.73-49.08-13.47-17.96-23.15-37.32-28.76-57.52a232 232 0 0 1-8.46-62.08c0-40.43 8.54-75.93 25.38-105.51a227 227 0 0 1 67.15-73.93c27.7-19.47 59.61-34.09 94.85-43.47a418 418 0 0 1 107.33-14.12c41.94 0 82.05 5.51 119.19 16.38 37.09 10.87 70.15 27.4 98.24 49.12a242 242 0 0 1 67.16 80.71c16.41 31.73 24.76 68.97 24.83 110.68h-140.42c-3.85-51.71-21.8-88.79-53.35-110.2-31.6-21.45-72.42-32.32-121.31-32.32-16.55 0-33.71 1.72-51 5.1-17.33 3.39-33.36 9.11-47.65 17.02a105 105 0 0 0-35.8 32.39c-9.44 13.58-14.23 30.8-14.23 51.18 0 28.68 9 51.45 26.74 67.67 17.67 16.19 41.15 28.6 69.76 36.87 3.21.81 15.86 4.22 35.64 9.62 20.9 5.7 44.3 11.98 69.57 18.66 29.02 7.69 52.93 13.97 75.22 19.79 24.06 6.3 41.76 11.06 52.59 14.14 26.19 8.25 49.35 19.64 68.84 33.86 19.46 14.23 35.98 30.75 49.09 49.09a205 205 0 0 1 29.34 59.24 218 218 0 0 1 9.59 63.2c0 44.94-9.3 83.86-27.65 115.69s-42.84 58.22-72.8 78.45c-30 20.24-64.57 35.25-102.77 44.61a495 495 0 0 1-117.52 14.12Z" class="cls-4"/><path d="M5376.38 175.88c41.9 0 81.95 5.5 119.05 16.36 37.03 10.85 70.03 27.35 98.07 49.04a242 242 0 0 1 67.03 80.54c16.31 31.53 24.64 68.53 24.77 109.95h-139.46c-3.94-51.64-21.94-88.68-53.53-110.11-31.69-21.5-72.6-32.41-121.59-32.41-16.58 0-33.77 1.72-51.09 5.11-17.38 3.4-33.46 9.14-47.8 17.07a106 106 0 0 0-35.97 32.54c-9.5 13.67-14.32 30.98-14.32 51.47 0 28.82 9.05 51.72 26.91 68.04 17.73 16.24 41.27 28.69 69.99 36.99 3.17.8 16.16 4.31 35.61 9.61 20.91 5.7 44.32 11.98 69.57 18.66 29.18 7.73 53.08 14.02 75.22 19.79a3018 3018 0 0 1 52.55 14.12c26.15 8.23 49.27 19.6 68.71 33.79 19.42 14.2 35.9 30.68 48.98 48.98a204 204 0 0 1 29.26 59.09 218 218 0 0 1 9.57 63.05c0 44.85-9.28 83.69-27.58 115.44-18.31 31.76-42.76 58.1-72.65 78.28-29.95 20.21-64.47 35.19-102.61 44.54a494 494 0 0 1-117.4 14.11c-45.69 0-89.36-5.7-129.81-16.93-40.43-11.23-76.09-28.68-105.98-51.86-29.9-23.15-54.16-53.29-72.11-89.58-17.83-36.03-27.31-79.12-28.16-128.07h139.37c.11 30.53 5.47 56.98 15.93 78.61 10.57 21.92 25.52 40.12 44.42 54.1 18.85 13.97 40.85 24.3 65.38 30.7 24.44 6.4 51.36 9.65 80 9.65 30.9 0 57.65-3.63 79.49-10.79 21.88-7.16 39.87-16.55 53.49-27.9s23.61-24.61 29.69-39.41c6.05-14.77 9.12-29.93 9.12-45.06 0-31.03-7.13-54.29-21.2-69.12-13.99-14.73-29.53-25.28-46.19-31.36-28.53-10.5-62.24-20.59-100.21-30.01-38.14-9.43-85.51-21.8-140.81-36.76-34.43-8.98-63.44-20.92-86.24-35.5-22.78-14.55-41.15-31.03-54.6-48.96-13.44-17.91-23.08-37.21-28.68-57.35a232 232 0 0 1-8.45-61.94c0-40.34 8.52-75.76 25.32-105.26a226.6 226.6 0 0 1 67.01-73.77c27.65-19.43 59.51-34.03 94.69-43.4a418 418 0 0 1 107.2-14.1m.04-.98a417 417 0 0 0-107.45 14.14q-53.17 14.15-95.01 43.55a226.5 226.5 0 0 0-67.3 74.09q-25.45 44.69-25.45 105.76 0 31.68 8.48 62.21t28.84 57.69q20.35 27.15 54.86 49.2 34.49 22.05 86.53 35.63 83.7 22.63 140.82 36.76 57.1 14.15 100.1 29.97 24.87 9.05 45.81 31.11 20.92 22.06 20.93 68.43 0 22.63-9.05 44.68t-29.41 39.02-53.16 27.71q-32.82 10.75-79.18 10.74-43 0-79.74-9.61-36.77-9.6-65.04-30.54-28.29-20.91-44.11-53.73-15.84-32.79-15.83-79.18h-141.39q1.12 74.66 28.28 129.51 27.14 54.88 72.39 89.92 45.23 35.07 106.32 52.03 61.07 16.97 130.08 16.97a493 493 0 0 0 117.63-14.14q57.68-14.13 102.93-44.68 45.23-30.53 72.96-78.61 27.7-48.06 27.71-115.94-.01-31.65-9.62-63.34a204 204 0 0 0-29.41-59.38q-19.8-27.7-49.2-49.2-29.42-21.48-69-33.93-15.85-4.5-52.6-14.14-36.77-9.61-75.22-19.79-38.46-10.18-69.56-18.66a3593 3593 0 0 0-35.63-9.61q-43-12.43-69.56-36.76-26.59-24.3-26.58-67.3-.01-30.54 14.14-50.9a104 104 0 0 1 35.63-32.24q21.47-11.87 47.51-16.97a265 265 0 0 1 50.9-5.09q73.52 0 121.03 32.24 47.5 32.23 53.16 110.28h141.39q-.01-63.33-24.88-111.41a241 241 0 0 0-67.3-80.87q-42.42-32.79-98.41-49.2-56-16.39-119.33-16.4Z"/><path d="M5904.84 1233.1c-29.85 0-59.74-2.26-88.86-6.71v-107.58a648 648 0 0 1 29.94 5 164 164 0 0 0 30.63 2.84c15.05 0 27.67-1.91 37.51-5.69 9.84-3.8 18.09-9.37 24.51-16.53a104 104 0 0 0 16.48-25.57c4.48-9.72 8.68-21.16 12.47-34l14.75-45.4-221.5-582.01h140.31l152.7 436.6h2.98l148.17-436.6h133.53l-227.1 615.78a4505 4505 0 0 1-31.1 75.76c-10.11 23.96-22.64 45.42-37.26 63.79-14.58 18.32-32.99 33.12-54.69 43.98-21.73 10.85-49.81 16.35-83.48 16.35Z" class="cls-4"/><path d="m6337.75 417.94-226.85 615.08a4567 4567 0 0 1-31.1 75.77c-10.09 23.92-22.6 45.34-37.19 63.67-14.54 18.26-32.89 33.02-54.52 43.84-21.66 10.81-49.67 16.3-83.25 16.3-29.68 0-59.4-2.23-88.36-6.64v-106.58a627 627 0 0 1 29.35 4.92 164 164 0 0 0 30.73 2.85c15.11 0 27.79-1.92 37.69-5.72 9.91-3.83 18.23-9.44 24.71-16.67a104 104 0 0 0 16.56-25.7c4.49-9.74 8.69-21.2 12.49-34.04l14.7-45.24.11-.34-.13-.33-221.18-581.16h139.23l152.47 435.94.23.67h3.69l.23-.68 147.94-435.93zm1.43-1.01h-134.6l-148.17 436.6h-2.26l-152.7-436.6h-141.39l221.7 582.52-14.7 45.24q-5.66 19.21-12.44 33.93-6.79 14.68-16.4 25.45-9.63 10.74-24.32 16.4-14.71 5.64-37.33 5.65-15.85-.01-30.54-2.83a631 631 0 0 0-30.54-5.09v108.59a587 587 0 0 0 89.36 6.79q50.89-.01 83.7-16.4 32.8-16.4 54.86-44.11t37.33-63.91a4481 4481 0 0 0 31.1-75.78l227.35-616.45Z"/><path d="M6814.88 1001.22V634.11c-1.52-45.92-11.45-79.7-29.53-100.43-18.12-20.75-46.79-31.27-85.21-31.27-21.84 0-41.7 4.01-59.03 11.92a128.5 128.5 0 0 0-44.28 32.93c-12.04 13.93-21.59 30.54-28.37 49.36-6.77 18.83-10.21 39.05-10.21 60.12v344.49H6430.3V417.44h121.16v85.67l2.86 2.86.33-.55c19.46-32.18 45.28-57.81 76.74-76.18 31.46-18.34 66.76-27.64 104.94-27.64 63.66 0 114.54 16.7 151.23 49.64 36.67 32.95 55.26 83.06 55.26 148.93v401.04h-127.95Z" class="cls-4"/><path d="M6736.34 402.11c31.79 0 60.6 4.17 85.65 12.39 25.01 8.21 46.97 20.7 65.25 37.12 18.26 16.41 32.16 37.21 41.29 61.82 9.16 24.66 13.8 53.84 13.8 86.74v400.54h-126.95V634.08c-1.52-46.02-11.5-79.91-29.66-100.73-18.22-20.87-47.01-31.45-85.59-31.45-21.92 0-41.84 4.03-59.23 11.97a129 129 0 0 0-44.45 33.06c-12.09 13.98-21.66 30.64-28.46 49.52-6.79 18.88-10.24 39.17-10.24 60.29v343.99H6430.8V417.94h120.16v85.38l.29.29 2.26 2.26.9.9.66-1.09c19.42-32.11 45.18-57.68 76.56-76 31.38-18.3 66.6-27.58 104.69-27.58m.02-.99q-57.69 0-105.19 27.71-47.51 27.74-76.92 76.35l-2.26-2.26v-85.96h-122.16v584.78h128.95V656.74q0-31.65 10.18-59.95 10.18-28.26 28.28-49.2 18.08-20.92 44.11-32.8 26-11.88 58.82-11.88 57.7 0 84.83 31.1 27.14 31.13 29.41 100.1v367.61h128.95V600.18q-.01-99.52-55.42-149.31-55.44-49.76-151.57-49.77Z"/><path d="M7334.68 1017.06c-45.69 0-86.53-7.79-121.39-23.14-34.84-15.35-64.66-36.62-88.62-63.22-23.96-26.56-42.38-58.66-54.75-95.4-12.37-36.72-18.64-77-18.64-119.74s6.08-84.93 18.07-123.14c11.97-38.21 30.21-71.83 54.2-99.93 23.95-28.07 54.15-50.48 89.75-66.6s77.95-24.27 125.91-24.27c33.69 0 66.18 4.37 96.57 12.99 30.34 8.62 57.69 21.72 81.28 38.95 23.57 17.22 43.12 39.24 58.11 65.45 14.89 26.09 23.99 57.42 27.04 93.13h-127.97c-5.33-35.94-20.02-63.5-43.67-81.9-23.74-18.46-54.1-27.82-90.23-27.82-16.57 0-34.51 2.86-53.3 8.5-18.82 5.65-36.4 16.34-52.24 31.79-15.82 15.45-29.18 37.21-39.71 64.65-10.53 27.43-15.87 63.84-15.87 108.2 0 24.06 2.86 48.46 8.5 72.5 5.64 24.08 14.8 45.83 27.22 64.63a148 148 0 0 0 48.23 45.96c19.57 11.68 43.63 17.6 71.52 17.6 37.66 0 69.17-11.84 93.66-35.2 24.38-23.25 39.82-56.32 45.9-98.27h127.93c-12.05 75.42-41.08 133.92-86.27 173.88-45.32 40.07-106.29 60.39-181.21 60.39Z" class="cls-4"/><path d="M7339.2 402.11c33.64 0 66.09 4.36 96.44 12.97 30.28 8.6 57.58 21.68 81.12 38.87 23.51 17.18 43.02 39.15 57.97 65.29 14.78 25.89 23.84 56.97 26.93 92.39h-127c-5.4-35.87-20.14-63.38-43.8-81.8-23.83-18.53-54.29-27.92-90.54-27.92-16.62 0-34.6 2.87-53.45 8.53-18.9 5.67-36.54 16.41-52.44 31.91-15.88 15.5-29.27 37.32-39.82 64.83-10.55 27.49-15.9 63.96-15.9 108.38 0 24.1 2.86 48.54 8.51 72.62 5.66 24.14 14.84 45.94 27.29 64.8a148.5 148.5 0 0 0 48.39 46.12c19.65 11.73 43.79 17.67 71.77 17.67 37.79 0 69.42-11.89 94.01-35.34 24.38-23.25 39.85-56.27 45.99-98.13h126.91c-6.02 37.34-16.25 70.77-30.41 99.37-14.3 28.87-33.01 53.65-55.61 73.63-22.61 19.99-49.28 35.19-79.27 45.19-30.01 10-64.2 15.07-101.62 15.07-45.62 0-86.39-7.77-121.19-23.1-34.77-15.32-64.53-36.55-88.46-63.1-23.91-26.51-42.3-58.55-54.65-95.23-12.35-36.66-18.61-76.9-18.61-119.58s6.07-84.83 18.05-122.99c11.96-38.14 30.16-71.7 54.1-99.75 23.9-28.01 54.04-50.38 89.58-66.47 35.52-16.08 77.81-24.23 125.71-24.23m0-1q-72.4 0-126.12 24.32-53.74 24.32-89.92 66.74-36.21 42.42-54.29 100.1-18.1 57.7-18.1 123.29c0 65.59 6.22 82.96 18.66 119.9q18.65 55.44 54.86 95.58 36.19 40.17 88.79 63.34 52.59 23.18 121.59 23.19 113.1 0 181.54-60.51 68.42-60.5 86.53-174.76h-128.95q-9.07 63.36-45.81 98.4-36.77 35.06-93.32 35.06-41.86.01-71.26-17.53a147 147 0 0 1-48.07-45.81q-18.66-28.26-27.15-64.47a316 316 0 0 1-8.48-72.39q0-66.71 15.83-108.02 15.83-41.28 39.59-64.47 23.74-23.17 52.03-31.67 28.27-8.49 53.16-8.48 54.3 0 89.92 27.71t43.55 82.01h128.95q-4.53-54.29-27.15-93.88-22.63-39.58-58.25-65.6t-81.44-39.02-96.71-13.01Z"/></g></svg>