<?xml version="1.0" encoding="UTF-8"?>
<svg id="_マーク" data-name="マーク" xmlns="http://www.w3.org/2000/svg" xmlns:xlink="http://www.w3.org/1999/xlink" viewBox="0 0 7639.4 1238.13">
  <defs>
    <style>
      .cls-1 {
        fill: #fff;
      }

      .cls-2 {
        fill: url(#_名称未設定グラデーション_2);
      }

      .cls-3 {
        fill: url(#_名称未設定グラデーション_4);
      }

      .cls-4 {
        fill: url(#_名称未設定グラデーション_3);
      }
    </style>
    <linearGradient id="_名称未設定グラデーション_4" data-name="名称未設定グラデーション 4" x1="66.81" y1="-5392.1" x2="-789.86" y2="-4609.99" gradientTransform="translate(726.5 -4108.08) scale(1 -1)" gradientUnits="userSpaceOnUse">
      <stop offset="0" stop-color="#0071c6"/>
      <stop offset=".5" stop-color="#00c8fd"/>
      <stop offset="1" stop-color="#0acaff"/>
    </linearGradient>
    <linearGradient id="_名称未設定グラデーション_2" data-name="名称未設定グラデーション 2" x1="276.12" y1="-4189.14" x2="-457.44" y2="-5171.1" gradientTransform="translate(726.5 -4108.08) scale(1 -1)" gradientUnits="userSpaceOnUse">
      <stop offset="0" stop-color="#00e8fd"/>
      <stop offset="1" stop-color="#0071c6"/>
    </linearGradient>
    <linearGradient id="_名称未設定グラデーション_3" data-name="名称未設定グラデーション 3" x1="158.22" y1="-4371.07" x2="-444.46" y2="-5147.79" gradientTransform="translate(726.5 -4108.08) scale(1 -1)" gradientUnits="userSpaceOnUse">
      <stop offset="0" stop-color="#00d2fc"/>
      <stop offset="1" stop-color="#0071c6"/>
    </linearGradient>
  </defs>
  <g>
    <path class="cls-3" d="M918.08,1137.71c-42.19,10.79-140.08,26.84-224.45-16.33-25.51,2.94-58.86,8.83-101.05,10.79-68.68.98-185.42-13.74-305.12-115.77-60.83-46.11-174.63-182.48-174.63-383.6.98-68.68,21.58-139.31,32.38-176.59-23.55-37.28-48.07-92.22-63.77-157.95C34.34,378.7,0,477.79,0,617.1c0,301.19,230.55,621.02,614.16,621.02,109.88,0,220.74-27.47,322.77-89.28l28.45-19.62v-6.87s-47.31,15.35-47.31,15.35Z"/>
    <path class="cls-2" d="M117.73,242.33C189.35,149.13,343.38-.98,606.31,0,922.21,0,1206.73,266.86,1206.73,617.1c0,138.33-48.07,286.47-155.01,420.88-11.77-39.24-29.43-73.58-56.9-103.99,50.03-69.66,96.15-168.75,96.15-298.25,0-207.99-157.95-508.2-482.69-508.2-73.58,0-142.26,15.7-218.78,55.92-67.69-.98-177.58,9.81-271.76,58.86Z"/>
    <path class="cls-4" d="M769.17,787.81c90.26-25.51,179.54-96.15,191.31-225.65,12.75-134.41-72.6-332.59-334.55-333.57h-143.24c-98.11,0-181.5,12.75-222.7,16.68l-156.97,17.66,232.52,184.44c28.45-18.64,68.68-44.15,104.98-44.15h227.61c61.81,0,108.9,52,108.9,120.67,0,50.03-35.32,107.92-103.99,107.92h-282.55l381.64,442.47s125.03,29.13,250.17,18.64l.98-.98s-254.1-304.13-254.1-304.13ZM436.58,931.05c-1.96-51.02,15.7-108.9,47.09-153.05l-115.26-131.67c-44.15,46.11-108.43,130.69-109.41,261.18.98,41.21,10.79,78.49,27.47,107.92,72.6,62.79,164.82,115.77,293.34,116.75,33.16,1.19,88.89-7.5,113.81-10.79-164.82,4.91-253.12-89.28-257.04-190.33Z"/>
  </g>
  <g>
    <path class="cls-1" d="M1610.34,174.89h385.71c88.97,0,155.7,19.23,200.2,57.69,44.48,38.46,66.74,92.01,66.74,160.62,0,38.46-5.65,70.32-16.97,95.58-11.31,25.27-24.51,45.63-39.59,61.08-15.09,15.47-29.97,26.58-44.68,33.37-14.7,6.79-25.45,11.31-32.24,13.57v2.26c12.05,1.52,25.06,5.28,39.02,11.31,13.94,6.05,26.95,15.66,39.02,28.84,12.05,13.2,22.06,30.36,29.97,51.47,7.92,21.12,11.88,47.51,11.88,79.18,0,47.51,3.57,90.68,10.74,129.51,7.16,38.85,18.27,66.56,33.37,83.14h-151.57c-10.57-17.34-16.79-36.57-18.66-57.69-1.89-21.1-2.83-41.46-2.83-61.08,0-36.94-2.26-68.8-6.79-95.58-4.52-26.76-12.83-49.01-24.88-66.74-12.07-17.71-28.47-30.72-49.2-39.02-20.75-8.29-47.33-12.44-79.74-12.44h-208.12v332.55h-141.39V174.89ZM1751.73,542.49h231.88c45.24,0,79.55-10.75,102.93-32.24,23.37-21.49,35.06-53.73,35.06-96.71,0-25.63-3.78-46.55-11.31-62.78-7.55-16.21-17.92-28.84-31.11-37.89-13.2-9.05-28.28-15.08-45.25-18.1-16.96-3-34.5-4.52-52.6-4.52h-229.62v252.24Z"/>
    <path class="cls-1" d="M2634.87,998.33c-46.76,0-88.42-7.74-124.99-23.19-36.58-15.45-67.5-36.76-92.75-63.91-25.27-27.15-44.5-59.56-57.69-97.27-13.2-37.7-19.8-79.18-19.8-124.42s6.59-85.57,19.8-123.29c13.18-37.7,32.41-70.13,57.69-97.27,25.25-27.15,56.17-48.44,92.75-63.91,36.57-15.45,78.22-23.19,124.99-23.19s88.4,7.74,124.99,23.19c36.57,15.46,67.48,36.76,92.75,63.91,25.25,27.15,44.48,59.58,57.69,97.27,13.19,37.72,19.8,78.81,19.8,123.29s-6.61,86.72-19.8,124.42c-13.2,37.72-32.43,70.13-57.69,97.27-25.27,27.15-56.18,48.46-92.75,63.91-36.59,15.45-78.24,23.19-124.99,23.19ZM2634.87,896.53c28.65,0,53.53-6.03,74.65-18.1,21.1-12.05,38.46-27.89,52.03-47.51,13.57-19.6,23.56-41.66,29.98-66.17,6.4-24.5,9.61-49.58,9.61-75.22s-3.22-49.77-9.61-74.65c-6.42-24.88-16.4-46.94-29.98-66.17-13.57-19.23-30.93-34.87-52.03-46.94-21.12-12.05-46-18.1-74.65-18.1s-53.55,6.04-74.65,18.1c-21.12,12.07-38.46,27.71-52.03,46.94-13.57,19.23-23.58,41.29-29.97,66.17-6.42,24.88-9.62,49.77-9.62,74.65s3.2,50.72,9.62,75.22c6.4,24.51,16.4,46.57,29.97,66.17,13.57,19.62,30.91,35.45,52.03,47.51,21.1,12.07,45.99,18.1,74.65,18.1Z"/>
    <path class="cls-1" d="M3021.01,397.71h122.16v85.96l2.26,2.26c19.6-32.41,45.25-57.86,76.92-76.35,31.67-18.47,66.74-27.71,105.19-27.71,64.08,0,114.61,16.6,151.57,49.77,36.94,33.19,55.42,82.96,55.42,149.31v401.54h-128.95v-367.61c-1.52-45.99-11.31-79.35-29.41-100.1-18.1-20.73-46.38-31.11-84.83-31.11-21.88,0-41.48,3.96-58.82,11.88-17.35,7.92-32.06,18.86-44.11,32.8-12.07,13.96-21.49,30.36-28.28,49.2-6.79,18.86-10.18,38.85-10.18,59.95v344.99h-128.95V397.71Z"/>
    <path class="cls-1" d="M4204.58,982.5h-122.16v-79.18h-2.26c-17.36,33.93-42.61,58.25-75.79,72.96-33.19,14.7-68.25,22.06-105.19,22.06-46,0-86.16-8.11-120.46-24.32-34.32-16.21-62.78-38.26-85.4-66.17-22.62-27.89-39.59-60.89-50.9-98.97-11.31-38.07-16.97-78.98-16.97-122.73,0-52.77,7.16-98.41,21.49-136.86,14.32-38.46,33.37-70.13,57.12-95.01,23.75-24.88,50.9-43.16,81.44-54.86,30.54-11.68,61.64-17.53,93.32-17.53,18.1,0,36.57,1.7,55.42,5.09,18.84,3.39,36.94,8.87,54.29,16.4,17.34,7.55,33.37,17.16,48.07,28.84,14.7,11.7,26.95,25.45,36.76,41.29h2.26V174.89h128.95v807.61ZM3754.4,696.33c0,24.88,3.2,49.4,9.61,73.52,6.4,24.14,16.21,45.63,29.41,64.47,13.18,18.86,29.98,33.93,50.33,45.25,20.36,11.31,44.48,16.96,72.39,16.96s53.34-6.03,74.09-18.1c20.73-12.05,37.7-27.89,50.9-47.51,13.18-19.6,22.99-41.66,29.41-66.17,6.4-24.5,9.62-49.58,9.62-75.22,0-64.84-14.53-115.37-43.55-151.57-29.04-36.19-68.43-54.29-118.2-54.29-30.17,0-55.62,6.22-76.35,18.66-20.75,12.44-37.72,28.67-50.9,48.64-13.2,19.99-22.62,42.61-28.28,67.87-5.66,25.27-8.48,51.09-8.48,77.48Z"/>
    <path class="cls-1" d="M4591.17,998.33c-46.76,0-88.42-7.74-124.99-23.19-36.58-15.45-67.5-36.76-92.75-63.91-25.27-27.15-44.5-59.56-57.69-97.27-13.2-37.7-19.8-79.18-19.8-124.42s6.59-85.57,19.8-123.29c13.18-37.7,32.41-70.13,57.69-97.27,25.25-27.15,56.17-48.44,92.75-63.91,36.57-15.45,78.22-23.19,124.99-23.19s88.4,7.74,124.99,23.19c36.57,15.46,67.48,36.76,92.75,63.91,25.25,27.15,44.48,59.58,57.69,97.27,13.19,37.72,19.8,78.81,19.8,123.29s-6.61,86.72-19.8,124.42c-13.2,37.72-32.43,70.13-57.69,97.27-25.27,27.15-56.18,48.46-92.75,63.91-36.59,15.45-78.24,23.19-124.99,23.19ZM4591.17,896.53c28.65,0,53.53-6.03,74.65-18.1,21.1-12.05,38.46-27.89,52.03-47.51,13.57-19.6,23.56-41.66,29.98-66.17,6.4-24.5,9.61-49.58,9.61-75.22s-3.22-49.77-9.61-74.65c-6.42-24.88-16.4-46.94-29.98-66.17-13.57-19.23-30.93-34.87-52.03-46.94-21.12-12.05-46-18.1-74.65-18.1s-53.55,6.04-74.65,18.1c-21.12,12.07-38.46,27.71-52.03,46.94-13.57,19.23-23.58,41.29-29.97,66.17-6.42,24.88-9.62,49.77-9.62,74.65s3.2,50.72,9.62,75.22c6.4,24.51,16.4,46.57,29.97,66.17,13.57,19.62,30.91,35.45,52.03,47.51,21.1,12.07,45.99,18.1,74.65,18.1Z"/>
    <path class="cls-1" d="M5192.01,732.52c0,30.93,5.27,57.32,15.83,79.18,10.55,21.88,25.26,39.78,44.11,53.73,18.84,13.96,40.53,24.14,65.04,30.54,24.5,6.41,51.08,9.61,79.74,9.61,30.91,0,57.3-3.57,79.18-10.74,21.86-7.16,39.59-16.4,53.16-27.71,13.57-11.31,23.37-24.32,29.41-39.02,6.03-14.7,9.05-29.59,9.05-44.68,0-30.91-6.98-53.73-20.93-68.43-13.96-14.7-29.23-25.06-45.81-31.11-28.67-10.55-62.03-20.54-100.1-29.97-38.09-9.42-85.03-21.67-140.82-36.76-34.69-9.05-63.54-20.93-86.53-35.63-23.01-14.7-41.29-31.1-54.86-49.2-13.57-18.1-23.19-37.33-28.84-57.69-5.65-20.36-8.48-41.09-8.48-62.21,0-40.72,8.48-75.96,25.45-105.76,16.97-29.78,39.39-54.47,67.3-74.09,27.89-19.6,59.56-34.11,95.01-43.55,35.43-9.42,71.26-14.14,107.45-14.14,42.22,0,82.01,5.48,119.33,16.4,37.33,10.94,70.13,27.34,98.41,49.2,28.28,21.88,50.71,48.83,67.3,80.87,16.58,32.06,24.88,69.19,24.88,111.41h-141.39c-3.78-52.03-21.49-88.79-53.16-110.28-31.67-21.49-72.02-32.24-121.03-32.24-16.6,0-33.56,1.7-50.9,5.09-17.35,3.39-33.19,9.05-47.51,16.97-14.33,7.92-26.21,18.66-35.63,32.24-9.44,13.57-14.14,30.54-14.14,50.9,0,28.67,8.85,51.09,26.58,67.3,17.71,16.22,40.9,28.47,69.56,36.76,3,.76,14.88,3.96,35.63,9.61,20.73,5.65,43.92,11.88,69.56,18.66,25.63,6.79,50.71,13.4,75.22,19.79,24.5,6.41,42.03,11.13,52.6,14.14,26.39,8.31,49.38,19.62,69,33.93,19.6,14.33,36,30.73,49.2,49.2,13.18,18.49,22.99,38.28,29.41,59.38,6.4,21.12,9.62,42.24,9.62,63.34,0,45.24-9.24,83.9-27.71,115.94-18.49,32.06-42.8,58.25-72.96,78.61-30.17,20.36-64.47,35.26-102.93,44.68-38.46,9.42-77.67,14.14-117.63,14.14-46.01,0-89.36-5.66-130.08-16.97-40.72-11.31-76.17-28.65-106.32-52.03-30.17-23.37-54.29-53.34-72.39-89.92-18.1-36.56-27.53-79.74-28.28-129.51h141.39Z"/>
    <path class="cls-1" d="M5760.05,416.94h141.39l152.7,436.6h2.26l148.17-436.6h134.6l-227.35,616.45c-10.57,26.39-20.93,51.64-31.11,75.78-10.18,24.12-22.62,45.42-37.33,63.91-14.7,18.47-33,33.17-54.86,44.11-21.88,10.92-49.77,16.4-83.7,16.4-30.17,0-59.95-2.26-89.36-6.79v-108.59c10.55,1.5,20.73,3.2,30.54,5.09,9.79,1.87,19.97,2.83,30.54,2.83,15.08,0,27.52-1.89,37.33-5.65,9.79-3.78,17.9-9.24,24.32-16.4,6.4-7.18,11.88-15.66,16.4-25.45,4.52-9.81,8.66-21.12,12.44-33.93l14.7-45.24-221.7-582.52Z"/>
    <path class="cls-1" d="M6429.81,416.94h122.16v85.96l2.26,2.26c19.6-32.41,45.25-57.86,76.92-76.35,31.67-18.47,66.74-27.71,105.19-27.71,64.08,0,114.61,16.6,151.57,49.77,36.94,33.19,55.42,82.96,55.42,149.31v401.54h-128.95v-367.61c-1.52-45.99-11.31-79.35-29.41-100.1-18.1-20.73-46.38-31.1-84.83-31.1-21.88,0-41.48,3.96-58.82,11.88-17.35,7.92-32.06,18.86-44.11,32.8-12.07,13.96-21.49,30.36-28.28,49.2-6.79,18.86-10.18,38.85-10.18,59.95v344.99h-128.95V416.94Z"/>
    <path class="cls-1" d="M7473.8,612.62c-5.28-36.2-19.79-63.52-43.55-82.01-23.75-18.47-53.73-27.71-89.92-27.71-16.59,0-34.32,2.83-53.16,8.48-18.86,5.66-36.2,16.22-52.03,31.67-15.83,15.46-29.04,36.96-39.59,64.47-10.57,27.54-15.83,63.54-15.83,108.02,0,24.14,2.83,48.27,8.48,72.39,5.65,24.14,14.7,45.63,27.15,64.47,12.44,18.86,28.45,34.13,48.07,45.81,19.6,11.7,43.35,17.53,71.26,17.53,37.7,0,68.8-11.68,93.32-35.06,24.5-23.36,39.77-56.16,45.81-98.41h128.95c-12.07,76.17-40.91,134.42-86.53,174.76-45.63,40.35-106.15,60.51-181.54,60.51-46,0-86.53-7.74-121.59-23.19-35.06-15.45-64.67-36.57-88.79-63.34-24.14-26.76-42.42-58.62-54.86-95.58-12.44-36.94-18.66-76.92-18.66-119.9s6.03-84.83,18.1-123.29c12.05-38.46,30.15-71.82,54.29-100.1,24.12-28.28,54.1-50.51,89.92-66.74,35.81-16.21,77.85-24.32,126.12-24.32,33.93,0,66.17,4.35,96.71,13.01,30.54,8.68,57.69,21.69,81.44,39.02,23.75,17.35,43.16,39.22,58.25,65.6,15.08,26.4,24.12,57.69,27.15,93.88h-128.95Z"/>
  </g>
</svg>