<?xml version="1.0" encoding="UTF-8"?>
<svg id="_マーク" data-name="マーク" xmlns="http://www.w3.org/2000/svg" xmlns:xlink="http://www.w3.org/1999/xlink" viewBox="0 0 6877.8 1238.13">
  <defs>
    <style>
      .cls-1 {
        fill: #fff;
      }

      .cls-2 {
        fill: url(#_名称未設定グラデーション_2);
      }

      .cls-3 {
        fill: url(#_名称未設定グラデーション_4);
      }

      .cls-4 {
        fill: url(#_名称未設定グラデーション_3);
      }
    </style>
    <linearGradient id="_名称未設定グラデーション_4" data-name="名称未設定グラデーション 4" x1="66.81" y1="-5392.1" x2="-789.86" y2="-4609.99" gradientTransform="translate(726.5 -4108.08) scale(1 -1)" gradientUnits="userSpaceOnUse">
      <stop offset="0" stop-color="#0071c6"/>
      <stop offset=".5" stop-color="#00c8fd"/>
      <stop offset="1" stop-color="#0acaff"/>
    </linearGradient>
    <linearGradient id="_名称未設定グラデーション_2" data-name="名称未設定グラデーション 2" x1="276.12" y1="-4189.14" x2="-457.44" y2="-5171.1" gradientTransform="translate(726.5 -4108.08) scale(1 -1)" gradientUnits="userSpaceOnUse">
      <stop offset="0" stop-color="#00e8fd"/>
      <stop offset="1" stop-color="#0071c6"/>
    </linearGradient>
    <linearGradient id="_名称未設定グラデーション_3" data-name="名称未設定グラデーション 3" x1="158.22" y1="-4371.07" x2="-444.46" y2="-5147.79" gradientTransform="translate(726.5 -4108.08) scale(1 -1)" gradientUnits="userSpaceOnUse">
      <stop offset="0" stop-color="#00d2fc"/>
      <stop offset="1" stop-color="#0071c6"/>
    </linearGradient>
  </defs>
  <g>
    <path class="cls-3" d="M918.08,1137.71c-42.19,10.79-140.08,26.84-224.45-16.33-25.51,2.94-58.86,8.83-101.05,10.79-68.68.98-185.42-13.74-305.12-115.77-60.83-46.11-174.63-182.48-174.63-383.6.98-68.68,21.58-139.31,32.38-176.59-23.55-37.28-48.07-92.22-63.77-157.95C34.34,378.7,0,477.79,0,617.1c0,301.19,230.55,621.02,614.16,621.02,109.88,0,220.74-27.47,322.77-89.28l28.45-19.62v-6.87s-47.31,15.35-47.31,15.35Z"/>
    <path class="cls-2" d="M117.73,242.33C189.35,149.13,343.38-.98,606.31,0,922.21,0,1206.73,266.86,1206.73,617.1c0,138.33-48.07,286.47-155.01,420.88-11.77-39.24-29.43-73.58-56.9-103.99,50.03-69.66,96.15-168.75,96.15-298.25,0-207.99-157.95-508.2-482.69-508.2-73.58,0-142.26,15.7-218.78,55.92-67.69-.98-177.58,9.81-271.76,58.86Z"/>
    <path class="cls-4" d="M769.17,787.81c90.26-25.51,179.54-96.15,191.31-225.65,12.75-134.41-72.6-332.59-334.55-333.57h-143.24c-98.11,0-181.5,12.75-222.7,16.68l-156.97,17.66,232.52,184.44c28.45-18.64,68.68-44.15,104.98-44.15h227.61c61.81,0,108.9,52,108.9,120.67,0,50.03-35.32,107.92-103.99,107.92h-282.55l381.64,442.47s125.03,29.13,250.17,18.64l.98-.98s-254.1-304.13-254.1-304.13ZM436.58,931.05c-1.96-51.02,15.7-108.9,47.09-153.05l-115.26-131.67c-44.15,46.11-108.43,130.69-109.41,261.18.98,41.21,10.79,78.49,27.47,107.92,72.6,62.79,164.82,115.77,293.34,116.75,33.16,1.19,88.89-7.5,113.81-10.79-164.82,4.91-253.12-89.28-257.04-190.33Z"/>
  </g>
  <g>
    <path class="cls-1" d="M1466.89,168.34h348.28c80.34,0,140.59,17.36,180.78,52.09,40.17,34.73,60.26,83.08,60.26,145.03,0,34.73-5.11,63.5-15.32,86.3-10.21,22.82-22.13,41.2-35.75,55.15-13.63,13.97-27.06,24-40.34,30.13-13.28,6.13-22.98,10.21-29.11,12.26v2.04c10.88,1.37,22.63,4.77,35.24,10.21,12.59,5.46,24.34,14.14,35.24,26.04,10.88,11.92,19.92,27.42,27.06,46.47,7.15,19.07,10.73,42.9,10.73,71.49,0,42.9,3.22,81.88,9.7,116.94,6.46,35.08,16.5,60.1,30.13,75.07h-136.86c-9.54-15.66-15.16-33.02-16.85-52.09-1.71-19.05-2.55-37.44-2.55-55.15,0-33.35-2.04-62.13-6.13-86.3-4.09-24.16-11.59-44.25-22.47-60.26-10.9-15.99-25.71-27.74-44.43-35.24-18.74-7.48-42.74-11.23-72.01-11.23h-187.93v300.28h-127.67V168.34ZM1594.55,500.28h209.38c40.85,0,71.83-9.7,92.94-29.11,21.1-19.41,31.66-48.51,31.66-87.33,0-23.14-3.41-42.03-10.21-56.68-6.81-14.63-16.18-26.04-28.09-34.22-11.92-8.17-25.53-13.61-40.86-16.34-15.32-2.71-31.15-4.09-47.49-4.09h-207.33v227.76Z"/>
    <path class="cls-1" d="M2392,911.88c-42.23,0-79.84-6.99-112.86-20.94-33.03-13.95-60.95-33.2-83.75-57.71-22.82-24.51-40.18-53.78-52.09-87.84-11.92-34.04-17.87-71.49-17.87-112.35s5.95-77.27,17.87-111.33c11.9-34.04,29.27-63.32,52.09-87.84,22.8-24.51,50.72-43.74,83.75-57.71,33.02-13.95,70.63-20.94,112.86-20.94s79.82,6.99,112.86,20.94c33.02,13.96,60.93,33.19,83.75,57.71,22.8,24.51,40.17,53.79,52.09,87.84,11.91,34.06,17.87,71.16,17.87,111.33s-5.97,78.31-17.87,112.35c-11.92,34.06-29.28,63.32-52.09,87.84-22.82,24.51-50.73,43.76-83.75,57.71-33.04,13.95-70.65,20.94-112.86,20.94ZM2392,819.96c25.87,0,48.34-5.44,67.41-16.34,19.05-10.88,34.73-25.18,46.98-42.9,12.26-17.7,21.27-37.61,27.07-59.75,5.78-22.12,8.68-44.76,8.68-67.92s-2.91-44.94-8.68-67.41c-5.79-22.47-14.81-42.39-27.07-59.75-12.26-17.36-27.93-31.48-46.98-42.39-19.07-10.88-41.54-16.34-67.41-16.34s-48.35,5.46-67.41,16.34c-19.07,10.9-34.72,25.02-46.98,42.39-12.26,17.36-21.29,37.28-27.06,59.75-5.79,22.47-8.68,44.94-8.68,67.41s2.89,45.8,8.68,67.92c5.78,22.13,14.81,42.05,27.06,59.75,12.26,17.71,27.91,32.01,46.98,42.9,19.05,10.9,41.52,16.34,67.41,16.34Z"/>
    <path class="cls-1" d="M2740.67,369.54h110.3v77.62l2.04,2.04c17.7-29.27,40.86-52.25,69.45-68.94,28.6-16.68,60.26-25.02,94.99-25.02,57.87,0,103.49,14.98,136.86,44.94,33.35,29.97,50.05,74.91,50.05,134.82v362.58h-116.43v-331.94c-1.37-41.52-10.21-71.65-26.56-90.39-16.34-18.72-41.88-28.09-76.6-28.09-19.76,0-37.46,3.57-53.11,10.72-15.67,7.15-28.95,17.03-39.83,29.62-10.9,12.61-19.41,27.42-25.53,44.43-6.13,17.03-9.19,35.08-9.19,54.13v311.51h-116.43V369.54Z"/>
    <path class="cls-1" d="M3809.39,897.58h-110.3v-71.49h-2.04c-15.67,30.64-38.48,52.6-68.43,65.88-29.97,13.28-61.63,19.92-94.98,19.92-41.54,0-77.8-7.32-108.77-21.96-30.99-14.63-56.69-34.55-77.11-59.75-20.43-25.18-35.75-54.98-45.96-89.37-10.21-34.38-15.32-71.32-15.32-110.82,0-47.65,6.46-88.86,19.41-123.58,12.93-34.72,30.13-63.32,51.58-85.79,21.45-22.47,45.96-38.97,73.54-49.54,27.58-10.55,55.66-15.83,84.26-15.83,16.34,0,33.02,1.53,50.05,4.6,17.01,3.06,33.35,8.01,49.02,14.81,15.66,6.81,30.13,15.5,43.41,26.04,13.28,10.56,24.34,22.98,33.19,37.28h2.04V168.34h116.43v729.24ZM3402.89,639.18c0,22.47,2.89,44.6,8.68,66.39,5.78,21.8,14.63,41.21,26.56,58.22,11.9,17.03,27.07,30.64,45.45,40.86,18.38,10.21,40.17,15.32,65.37,15.32s48.16-5.44,66.9-16.34c18.72-10.88,34.04-25.18,45.96-42.9,11.9-17.7,20.76-37.61,26.55-59.75,5.78-22.12,8.68-44.76,8.68-67.92,0-58.55-13.12-104.18-39.32-136.86-26.22-32.68-61.79-49.02-106.73-49.02-27.24,0-50.22,5.62-68.94,16.85-18.74,11.24-34.06,25.88-45.96,43.92-11.92,18.05-20.43,38.48-25.53,61.28-5.11,22.82-7.66,46.14-7.66,69.96Z"/>
    <path class="cls-1" d="M4158.46,911.88c-42.23,0-79.84-6.99-112.86-20.94-33.03-13.95-60.95-33.2-83.75-57.71-22.82-24.51-40.18-53.78-52.09-87.84-11.92-34.04-17.87-71.49-17.87-112.35s5.95-77.27,17.87-111.33c11.9-34.04,29.27-63.32,52.09-87.84,22.8-24.51,50.72-43.74,83.75-57.71,33.02-13.95,70.63-20.94,112.86-20.94s79.82,6.99,112.86,20.94c33.02,13.96,60.93,33.19,83.75,57.71,22.8,24.51,40.17,53.79,52.09,87.84,11.91,34.06,17.87,71.16,17.87,111.33s-5.97,78.31-17.87,112.35c-11.92,34.06-29.28,63.32-52.09,87.84-22.82,24.51-50.73,43.76-83.75,57.71-33.04,13.95-70.65,20.94-112.86,20.94ZM4158.46,819.96c25.87,0,48.34-5.44,67.41-16.34,19.05-10.88,34.73-25.18,46.98-42.9,12.26-17.7,21.27-37.61,27.07-59.75,5.78-22.12,8.68-44.76,8.68-67.92s-2.91-44.94-8.68-67.41c-5.79-22.47-14.81-42.39-27.07-59.75-12.26-17.36-27.93-31.48-46.98-42.39-19.07-10.88-41.54-16.34-67.41-16.34s-48.35,5.46-67.41,16.34c-19.07,10.9-34.72,25.02-46.98,42.39-12.26,17.36-21.29,37.28-27.06,59.75-5.79,22.47-8.68,44.94-8.68,67.41s2.89,45.8,8.68,67.92c5.78,22.13,14.81,42.05,27.06,59.75,12.26,17.71,27.91,32.01,46.98,42.9,19.05,10.9,41.52,16.34,67.41,16.34Z"/>
    <path class="cls-1" d="M4700.99,671.86c0,27.93,4.76,51.75,14.3,71.49,9.53,19.76,22.81,35.92,39.83,48.51,17.01,12.61,36.59,21.8,58.73,27.58,22.12,5.79,46.12,8.68,72,8.68,27.91,0,51.74-3.22,71.49-9.7,19.74-6.46,35.75-14.81,48-25.02,12.26-10.21,21.1-21.96,26.56-35.24,5.44-13.28,8.17-26.72,8.17-40.34,0-27.91-6.3-48.51-18.9-61.79-12.61-13.28-26.4-22.63-41.36-28.09-25.88-9.53-56.01-18.54-90.39-27.06-34.39-8.51-76.78-19.57-127.16-33.2-31.33-8.17-57.37-18.9-78.13-32.17-20.78-13.28-37.28-28.09-49.54-44.43-12.26-16.34-20.94-33.7-26.04-52.09-5.11-18.38-7.66-37.1-7.66-56.17,0-36.77,7.66-68.59,22.98-95.5,15.32-26.89,35.57-49.18,60.77-66.9,25.18-17.7,53.78-30.8,85.79-39.32,32-8.51,64.34-12.77,97.03-12.77,38.12,0,74.05,4.95,107.75,14.81,33.7,9.88,63.32,24.69,88.86,44.43,25.53,19.76,45.78,44.09,60.77,73.03,14.97,28.95,22.47,62.48,22.47,100.6h-127.67c-3.42-46.98-19.41-80.18-48-99.58-28.6-19.41-65.03-29.11-109.28-29.11-14.99,0-30.31,1.53-45.96,4.6-15.67,3.06-29.97,8.17-42.9,15.32-12.94,7.15-23.67,16.85-32.17,29.11-8.52,12.26-12.77,27.58-12.77,45.96,0,25.89,7.99,46.14,24,60.77,15.99,14.65,36.93,25.71,62.81,33.19,2.71.69,13.44,3.57,32.17,8.68,18.72,5.11,39.66,10.72,62.81,16.85,23.14,6.13,45.78,12.1,67.92,17.87,22.12,5.79,37.95,10.05,47.49,12.77,23.82,7.5,44.59,17.71,62.3,30.64,17.7,12.94,32.51,27.75,44.43,44.43,11.9,16.69,20.76,34.57,26.55,53.62,5.78,19.07,8.68,38.14,8.68,57.2,0,40.85-8.35,75.75-25.02,104.69-16.69,28.95-38.65,52.6-65.88,70.98-27.24,18.38-58.22,31.84-92.94,40.34-34.73,8.5-70.14,12.77-106.22,12.77-41.54,0-80.69-5.11-117.46-15.32-36.77-10.21-68.78-25.87-96-46.98-27.24-21.1-49.02-48.16-65.37-81.2-16.34-33.02-24.86-72-25.53-116.94h127.67Z"/>
    <path class="cls-1" d="M5213.92,386.91h127.67l137.88,394.24h2.04l133.8-394.24h121.54l-205.29,556.63c-9.54,23.82-18.9,46.63-28.09,68.43-9.19,21.78-20.43,41.01-33.7,57.71-13.28,16.68-29.8,29.96-49.54,39.83-19.76,9.86-44.94,14.81-75.58,14.81-27.24,0-54.13-2.04-80.69-6.13v-98.05c9.53,1.36,18.72,2.89,27.58,4.6,8.84,1.69,18.03,2.55,27.58,2.55,13.61,0,24.85-1.71,33.7-5.11,8.84-3.42,16.17-8.35,21.96-14.81,5.78-6.48,10.72-14.14,14.81-22.98,4.08-8.86,7.82-19.07,11.23-30.64l13.28-40.85-200.19-525.99Z"/>
    <path class="cls-1" d="M5818.67,386.91h110.3v77.62l2.04,2.04c17.7-29.27,40.86-52.25,69.45-68.94,28.6-16.68,60.26-25.02,94.99-25.02,57.87,0,103.49,14.98,136.86,44.94,33.35,29.97,50.05,74.91,50.05,134.82v362.58h-116.43v-331.94c-1.37-41.52-10.21-71.65-26.56-90.39-16.34-18.72-41.88-28.09-76.6-28.09-19.76,0-37.46,3.57-53.11,10.72-15.67,7.15-28.95,17.03-39.83,29.62-10.9,12.61-19.41,27.42-25.53,44.43-6.13,17.03-9.19,35.08-9.19,54.13v311.51h-116.43V386.91Z"/>
    <path class="cls-1" d="M6761.36,563.6c-4.77-32.68-17.87-57.36-39.32-74.05-21.45-16.68-48.51-25.02-81.2-25.02-14.98,0-30.99,2.55-48,7.66-17.03,5.11-32.68,14.65-46.98,28.6-14.3,13.96-26.22,33.37-35.75,58.22-9.54,24.86-14.3,57.37-14.3,97.54,0,21.8,2.55,43.58,7.66,65.37,5.11,21.8,13.28,41.2,24.51,58.22,11.23,17.03,25.69,30.82,43.41,41.36,17.7,10.56,39.15,15.83,64.35,15.83,34.04,0,62.13-10.55,84.26-31.66,22.12-21.1,35.91-50.71,41.36-88.86h116.43c-10.9,68.78-36.94,121.38-78.13,157.8-41.21,36.43-95.85,54.64-163.93,54.64-41.54,0-78.13-6.99-109.79-20.94-31.66-13.95-58.39-33.02-80.18-57.2-21.8-24.16-38.3-52.93-49.53-86.3-11.23-33.35-16.85-69.45-16.85-108.26s5.44-76.6,16.34-111.33c10.88-34.72,27.23-64.85,49.02-90.39,21.78-25.53,48.85-45.61,81.2-60.26,32.33-14.63,70.3-21.96,113.88-21.96,30.64,0,59.75,3.93,87.32,11.75,27.58,7.84,52.09,19.58,73.54,35.24,21.45,15.67,38.97,35.41,52.6,59.24,13.61,23.84,21.78,52.09,24.51,84.77h-116.43Z"/>
  </g>
</svg>