<svg id="rondsync-logo" xmlns="http://www.w3.org/2000/svg" width="5194.573" height="1308.548" viewBox="0 0 5194.573 1308.548">
  <defs>
    <linearGradient id="rs-grad-1" x1="99.193" y1="428.548" x2="-757.485" y2="1210.664" gradientTransform="translate(726.5 1738.569) scale(1 -1)" gradientUnits="userSpaceOnUse">
      <stop offset="0" stop-color="#0071c6"/>
      <stop offset=".502" stop-color="#00c8fd"/>
      <stop offset="1" stop-color="#0acaff"/>
    </linearGradient>
    <linearGradient id="rs-grad-2" x1="308.497" y1="1631.515" x2="-425.055" y2="649.554" gradientTransform="translate(726.5 1738.569) scale(1 -1)" gradientUnits="userSpaceOnUse">
      <stop offset="0" stop-color="#00e8fd"/>
      <stop offset="1" stop-color="#0071c6"/>
    </linearGradient>
    <linearGradient id="rs-grad-3" x1="190.601" y1="1449.585" x2="-412.076" y2="672.865" gradientTransform="translate(726.5 1738.569) scale(1 -1)" gradientUnits="userSpaceOnUse">
      <stop offset="0" stop-color="#00d2fc"/>
      <stop offset="1" stop-color="#0071c6"/>
    </linearGradient>
    <linearGradient id="rs-grad-4" x1="1678.595" y1="396.789" x2="1678.595" y2="894.662" gradientUnits="userSpaceOnUse">
      <stop offset="0" stop-color="#9b9b9c"/>
      <stop offset="1" stop-color="#727171"/>
    </linearGradient>
    <linearGradient id="rs-grad-5" x1="2099.612" y1="524.396" x2="2099.612" y2="904.423" href="#rs-grad-4"/>
    <linearGradient id="rs-grad-6" x1="2495.946" y1="524.396" x2="2495.946" href="#rs-grad-4"/>
    <linearGradient id="rs-grad-7" x1="2888.793" x2="2888.793" y2="904.423" href="#rs-grad-4"/>
    <linearGradient id="rs-grad-8" x1="3305.626" y1="524.396" x2="3305.626" y2="904.423" href="#rs-grad-4"/>
    <linearGradient id="rs-grad-9" x1="3791.776" y1="396.789" x2="3791.776" y2="918.369" href="#rs-grad-4"/>
    <linearGradient id="rs-grad-10" x1="4204.722" y1="546.011" x2="4204.722" y2="1049.461" href="#rs-grad-4"/>
    <linearGradient id="rs-grad-11" x1="4597.386" y1="536.249" x2="4597.386" y2="906.515" href="#rs-grad-4"/>
    <linearGradient id="rs-grad-12" x1="4992.051" y1="536.249" x2="4992.051" y2="916.276" href="#rs-grad-4"/>
  </defs>
  <g>
    <path d="M950.455,1163.7c-42.186,10.792-140.08,26.837-224.453-16.33-25.508,2.943-58.865,8.83-101.051,10.792-68.675.981-185.424-13.735-305.115-115.767-60.827-46.111-174.632-182.481-174.632-383.602.981-68.675,21.584-139.313,32.376-176.594-23.546-37.281-48.073-92.221-63.77-157.954-47.092,80.448-81.43,179.537-81.43,318.85,0,301.191,230.553,621.023,614.155,621.023,109.881,0,220.743-27.47,322.775-89.278l28.451-19.622v-6.868s-47.306,15.349-47.306,15.349Z" fill="url(#rs-grad-1)"/>
    <path d="M150.11,268.324C221.728,175.121,375.758,25.016,638.687,25.998c315.907,0,600.42,266.853,600.42,617.098,0,138.332-48.073,286.475-155.01,420.883-11.773-39.243-29.432-73.581-56.903-103.994,50.035-69.657,96.146-168.745,96.146-298.248,0-207.989-157.954-508.199-482.691-508.199-73.581,0-142.256,15.697-218.78,55.921-67.694-.981-177.575,9.811-271.759,58.865Z" fill="url(#rs-grad-2)"/>
    <path d="M801.546,813.803c90.259-25.508,179.537-96.146,191.31-225.648,12.754-134.408-72.6-332.586-334.548-333.567h-143.237c-98.108,0-181.499,12.754-222.705,16.678l-156.973,17.659,232.516,184.443c28.451-18.641,68.675-44.149,104.975-44.149h227.61c61.808,0,108.9,51.997,108.9,120.673,0,50.035-35.319,107.919-103.994,107.919h-282.551l381.639,442.466s125.029,29.131,250.175,18.64l.981-.981s-254.099-304.134-254.099-304.134ZM468.96,957.041c-1.962-51.016,15.697-108.9,47.092-153.048l-115.258-131.673c-44.149,46.111-108.428,130.692-109.409,261.176.981,41.205,10.792,78.486,27.47,107.919,72.6,62.789,164.821,115.767,293.342,116.748,33.159,1.187,88.891-7.502,113.805-10.792-164.821,4.905-253.118-89.278-257.043-190.329Z" fill="url(#rs-grad-3)"/>
  </g>
  <g>
    <path d="M1468.011,396.789h237.779c54.847,0,95.988,11.854,123.422,35.563,27.424,23.708,41.141,56.721,41.141,99.017,0,23.708-3.486,43.352-10.46,58.922-6.972,15.58-15.112,28.131-24.406,37.653-9.305,9.535-18.478,16.388-27.543,20.57-9.065,4.184-15.69,6.974-19.874,8.368v1.395c7.431.937,15.45,3.258,24.058,6.972,8.596,3.727,16.615,9.654,24.057,17.781,7.431,8.14,13.597,18.719,18.478,31.728,4.881,13.019,7.323,29.287,7.323,48.81,0,29.288,2.201,55.904,6.623,79.841,4.413,23.947,11.266,41.032,20.57,51.252h-93.438c-6.515-10.688-10.351-22.543-11.505-35.562-1.165-13.009-1.742-25.561-1.742-37.655,0-22.771-1.395-42.415-4.184-58.922-2.789-16.496-7.91-30.213-15.341-41.141-7.442-10.917-17.553-18.936-30.332-24.057-12.791-5.109-29.179-7.67-49.16-7.67h-128.304v205.007h-87.162v-497.872ZM1555.172,623.411h142.948c27.892,0,49.04-6.625,63.454-19.872,14.404-13.249,21.616-33.122,21.616-59.619,0-15.798-2.331-28.698-6.972-38.7-4.652-9.991-11.049-17.781-19.176-23.36-8.14-5.578-17.433-9.293-27.893-11.156-10.458-1.852-21.267-2.789-32.424-2.789h-141.553v155.498Z" fill="url(#rs-grad-4)"/>
    <path d="M2099.612,904.423c-28.828,0-54.509-4.772-77.052-14.294-22.553-9.523-41.609-22.663-57.178-39.398-15.58-16.735-27.435-36.717-35.562-59.968-8.139-23.239-12.203-48.811-12.203-76.703,0-27.424,4.065-52.754,12.203-76.005,8.127-23.241,19.982-43.232,35.562-59.968,15.569-16.735,34.626-29.864,57.178-39.397,22.543-9.523,48.224-14.295,77.052-14.295s54.498,4.772,77.052,14.295c22.543,9.533,41.598,22.662,57.178,39.397,15.569,16.735,27.424,36.727,35.562,59.968,8.129,23.251,12.203,48.582,12.203,76.005,0,27.892-4.075,53.464-12.203,76.703-8.139,23.251-19.993,43.232-35.562,59.968-15.58,16.735-34.636,29.875-57.178,39.398-22.554,9.522-48.234,14.294-77.052,14.294ZM2099.612,841.666c17.662,0,33.002-3.715,46.022-11.156,13.009-7.431,23.709-17.192,32.076-29.287,8.368-12.083,14.523-25.68,18.479-40.792,3.943-15.101,5.927-30.562,5.927-46.371,0-15.341-1.983-30.681-5.927-46.022-3.956-15.341-10.111-28.938-18.479-40.792-8.367-11.854-19.067-21.496-32.076-28.938-13.019-7.431-28.36-11.156-46.022-11.156s-33.012,3.726-46.022,11.156c-13.019,7.442-23.708,17.083-32.076,28.938-8.367,11.854-14.535,25.451-18.478,40.792-3.956,15.341-5.928,30.681-5.928,46.022,0,15.809,1.972,31.27,5.928,46.371,3.943,15.112,10.111,28.709,18.478,40.792,8.368,12.094,19.056,21.856,32.076,29.287,13.009,7.442,28.35,11.156,46.022,11.156Z" fill="url(#rs-grad-5)"/>
    <path d="M2337.658,534.158h75.308v52.995l1.395,1.395c12.083-19.982,27.893-35.671,47.417-47.068,19.525-11.386,41.141-17.084,64.85-17.084,39.506,0,70.656,10.231,93.438,30.681,22.771,20.461,34.167,51.142,34.167,92.044v247.541h-79.492v-226.623c-.937-28.35-6.974-48.919-18.13-61.71-11.156-12.781-28.59-19.176-52.297-19.176-13.489,0-25.572,2.44-36.26,7.321-10.698,4.882-19.763,11.625-27.194,20.221-7.442,8.607-13.249,18.718-17.433,30.332-4.183,11.626-6.276,23.949-6.276,36.957v212.677h-79.492v-360.504Z" fill="url(#rs-grad-6)"/>
    <path d="M3067.302,894.662h-75.308v-48.811h-1.395c-10.7,20.919-26.269,35.911-46.72,44.976-20.461,9.065-42.077,13.597-64.849,13.597-28.36,0-53.115-5-74.263-14.992-21.159-9.991-38.701-23.588-52.646-40.792-13.946-17.192-24.406-37.534-31.378-61.013-6.974-23.469-10.46-48.692-10.46-75.657,0-32.534,4.413-60.666,13.249-84.373,8.825-23.708,20.569-43.232,35.213-58.573,14.644-15.341,31.379-26.606,50.206-33.819,18.827-7.202,38.003-10.808,57.527-10.808,11.156,0,22.543,1.046,34.167,3.138,11.615,2.092,22.771,5.47,33.471,10.111,10.688,4.652,20.57,10.58,29.635,17.781,9.065,7.213,16.615,15.69,22.662,25.452h1.395v-184.088h79.492v497.872ZM2789.776,718.245c0,15.341,1.972,30.453,5.927,45.324,3.944,14.884,9.991,28.133,18.13,39.746,8.127,11.626,18.479,20.919,31.03,27.893,12.551,6.972,27.424,10.458,44.627,10.458,17.661,0,32.882-3.715,45.673-11.156,12.781-7.431,23.239-17.192,31.379-29.287,8.127-12.083,14.174-25.68,18.129-40.792,3.944-15.101,5.928-30.562,5.928-46.371,0-39.975-8.956-71.124-26.846-93.438-17.902-22.313-42.187-33.469-72.868-33.469-18.598,0-34.288,3.835-47.068,11.505-12.792,7.671-23.251,17.672-31.379,29.983-8.139,12.323-13.946,26.269-17.432,41.838-3.487,15.58-5.23,31.498-5.23,47.766Z" fill="url(#rs-grad-7)"/>
    <path d="M3305.626,904.423c-28.828,0-54.509-4.772-77.052-14.294-22.553-9.523-41.609-22.663-57.178-39.398-15.58-16.735-27.435-36.717-35.562-59.968-8.139-23.239-12.203-48.811-12.203-76.703,0-27.424,4.065-52.754,12.203-76.005,8.127-23.241,19.982-43.232,35.562-59.968,15.569-16.735,34.626-29.864,57.178-39.397,22.543-9.523,48.224-14.295,77.052-14.295s54.498,4.772,77.052,14.295c22.543,9.533,41.598,22.662,57.178,39.397,15.569,16.735,27.424,36.727,35.562,59.968,8.129,23.251,12.203,48.582,12.203,76.005,0,27.892-4.075,53.464-12.203,76.703-8.139,23.251-19.993,43.232-35.562,59.968-15.58,16.735-34.636,29.875-57.178,39.398-22.554,9.522-48.234,14.294-77.052,14.294ZM3305.626,841.666c17.662,0,33.002-3.715,46.022-11.156,13.009-7.431,23.709-17.192,32.076-29.287,8.368-12.083,14.523-25.68,18.479-40.792,3.943-15.101,5.927-30.562,5.927-46.371,0-15.341-1.983-30.681-5.927-46.022-3.956-15.341-10.111-28.938-18.479-40.792-8.367-11.854-19.067-21.496-32.076-28.938-13.019-7.431-28.36-11.156-46.022-11.156s-33.012,3.726-46.022,11.156c-13.019,7.442-23.708,17.083-32.076,28.938-8.367,11.854-14.535,25.451-18.478,40.792-3.956,15.341-5.928,30.681-5.928,46.022,0,15.809,1.972,31.27,5.928,46.371,3.943,15.112,10.111,28.709,18.478,40.792,8.368,12.094,19.056,21.856,32.076,29.287,13.009,7.442,28.35,11.156,46.022,11.156Z" fill="url(#rs-grad-8)"/>
    <path d="M3676.024,740.557c0,19.067,3.246,35.334,9.762,48.811,6.505,13.488,15.57,24.525,27.195,33.122,11.615,8.607,24.983,14.882,40.095,18.827,15.101,3.954,31.487,5.927,49.159,5.927,19.056,0,35.322-2.201,48.811-6.623,13.478-4.413,24.406-10.112,32.773-17.084,8.368-6.974,14.404-14.992,18.13-24.057,3.716-9.065,5.579-18.239,5.579-27.544,0-19.055-4.303-33.122-12.9-42.187-8.607-9.065-18.021-15.45-28.241-19.176-17.672-6.504-38.242-12.66-61.711-18.478-23.479-5.807-52.417-13.358-86.814-22.663-21.388-5.578-39.169-12.9-53.343-21.965-14.186-9.064-25.451-19.175-33.82-30.332-8.367-11.156-14.295-23.01-17.781-35.561-3.486-12.551-5.23-25.331-5.23-38.352,0-25.103,5.23-46.828,15.69-65.198,10.46-18.359,24.285-33.579,41.49-45.673,17.192-12.083,36.717-21.028,58.573-26.846,21.845-5.807,43.929-8.716,66.243-8.716,26.029,0,50.555,3.378,73.566,10.111,23.011,6.744,43.232,16.855,60.664,30.333,17.432,13.488,31.259,30.104,41.49,49.857,10.22,19.764,15.341,42.655,15.341,68.684h-87.163c-2.332-32.076-13.249-54.738-32.774-67.986-19.523-13.249-44.397-19.873-74.61-19.873-10.231,0-20.691,1.046-31.379,3.138-10.698,2.092-20.461,5.578-29.287,10.459-8.835,4.882-16.158,11.505-21.965,19.873-5.817,8.368-8.716,18.827-8.716,31.379,0,17.672,5.458,31.498,16.386,41.49,10.918,10.002,25.213,17.552,42.885,22.662,1.852.468,9.174,2.44,21.965,5.927,12.78,3.486,27.075,7.322,42.883,11.505,15.799,4.184,31.259,8.258,46.371,12.203,15.101,3.954,25.908,6.864,32.425,8.716,16.266,5.121,30.441,12.094,42.534,20.919,12.083,8.835,22.194,18.946,30.333,30.332,8.127,11.396,14.174,23.6,18.129,36.608,3.944,13.021,5.928,26.04,5.928,39.05,0,27.892-5.698,51.72-17.084,71.473-11.396,19.765-26.388,35.911-44.976,48.462-18.598,12.551-39.746,21.737-63.454,27.544-23.709,5.806-47.885,8.716-72.519,8.716-28.361,0-55.087-3.487-80.19-10.46-25.102-6.974-46.958-17.662-65.545-32.076-18.6-14.404-33.471-32.882-44.628-55.436-11.156-22.541-16.974-49.159-17.432-79.84h87.163Z" fill="url(#rs-grad-9)"/>
    <path d="M4026.213,546.011h87.163l94.136,269.157h1.395l91.346-269.157h82.979l-140.157,380.028c-6.515,16.266-12.9,31.836-19.176,46.719-6.276,14.872-13.946,28.001-23.011,39.397-9.065,11.386-20.342,20.451-33.82,27.195-13.488,6.734-30.681,10.111-51.599,10.111-18.598,0-36.958-1.395-55.087-4.183v-66.941c6.504.926,12.78,1.972,18.827,3.137,6.036,1.155,12.311,1.744,18.827,1.744,9.293,0,16.964-1.166,23.011-3.486,6.036-2.332,11.037-5.698,14.993-10.111,3.943-4.424,7.321-9.654,10.111-15.69,2.788-6.047,5.338-13.019,7.67-20.919l9.065-27.892-136.672-359.109Z" fill="url(#rs-grad-10)"/>
    <path d="M4439.099,546.011h75.308v52.995l1.395,1.395c12.083-19.982,27.893-35.671,47.417-47.068,19.525-11.386,41.141-17.084,64.85-17.084,39.506,0,70.656,10.231,93.438,30.681,22.771,20.461,34.167,51.142,34.167,92.044v247.541h-79.492v-226.623c-.937-28.35-6.974-48.919-18.13-61.711-11.156-12.779-28.59-19.175-52.297-19.175-13.489,0-25.572,2.44-36.26,7.321-10.698,4.882-19.763,11.625-27.194,20.222-7.442,8.607-13.249,18.718-17.433,30.332-4.183,11.626-6.276,23.949-6.276,36.957v212.677h-79.492v-360.504Z" fill="url(#rs-grad-11)"/>
    <path d="M5082.7,666.644c-3.258-22.314-12.202-39.159-26.846-50.555-14.644-11.385-33.122-17.083-55.436-17.083-10.23,0-21.158,1.743-32.773,5.23-11.625,3.487-22.314,10.002-32.076,19.523-9.762,9.533-17.902,22.782-24.406,39.746-6.515,16.975-9.762,39.169-9.762,66.592,0,14.882,1.742,29.755,5.23,44.627,3.486,14.884,9.065,28.132,16.735,39.746,7.67,11.625,17.541,21.039,29.634,28.241,12.083,7.212,26.727,10.807,43.93,10.807,23.239,0,42.415-7.201,57.527-21.616,15.101-14.403,24.515-34.624,28.241-60.664h79.492c-7.442,46.958-25.223,82.869-53.343,107.733-28.133,24.874-65.437,37.305-111.917,37.305-28.36,0-53.343-4.772-74.959-14.294-21.616-9.523-39.867-22.543-54.739-39.05-14.882-16.496-26.148-36.14-33.818-58.922-7.67-22.771-11.505-47.417-11.505-73.914,0-26.955,3.715-52.297,11.156-76.006,7.431-23.708,18.588-44.277,33.471-61.71,14.872-17.433,33.35-31.139,55.436-41.141,22.073-9.991,47.994-14.992,77.749-14.992,20.919,0,40.792,2.68,59.619,8.019,18.828,5.35,35.563,13.369,50.206,24.057,14.644,10.699,26.606,24.177,35.911,40.444,9.293,16.276,14.872,35.561,16.735,57.876h-79.492Z" fill="url(#rs-grad-12)"/>
  </g>
</svg>